<svg width="368" height="304" viewBox="0 0 368 304" fill="none" xmlns="http://www.w3.org/2000/svg">
<g filter="url(#filter0_ddd_1157_19027)">
<rect x="80" y="47" width="208" height="144" rx="24" fill="white"/>
<rect x="81" y="48" width="206" height="142" rx="23" stroke="#EBEFF6" stroke-width="2"/>
<path d="M160.886 132.955V106.022H172.39C174.266 106.022 175.813 106.346 177.032 106.995C178.251 107.635 179.158 108.498 179.754 109.586C180.351 110.664 180.649 111.861 180.649 113.176C180.649 114.333 180.443 115.289 180.031 116.043C179.627 116.797 179.093 117.393 178.426 117.831C177.769 118.27 177.054 118.594 176.283 118.805V119.068C177.107 119.12 177.935 119.41 178.768 119.936C179.601 120.462 180.298 121.216 180.859 122.198C181.42 123.18 181.701 124.381 181.701 125.801C181.701 127.151 181.394 128.366 180.78 129.444C180.167 130.522 179.198 131.377 177.874 132.008C176.55 132.64 174.827 132.955 172.705 132.955H160.886ZM164.147 130.062H172.705C174.836 130.062 176.348 129.65 177.243 128.826C178.146 127.993 178.597 126.985 178.597 125.801C178.597 124.889 178.365 124.048 177.9 123.276C177.435 122.496 176.774 121.873 175.914 121.409C175.055 120.935 174.038 120.698 172.863 120.698H164.147V130.062ZM164.147 117.858H172.285C173.267 117.858 174.152 117.665 174.941 117.279C175.739 116.893 176.37 116.35 176.835 115.648C177.308 114.947 177.545 114.123 177.545 113.176C177.545 111.992 177.133 110.988 176.309 110.164C175.485 109.331 174.178 108.915 172.39 108.915H164.147V117.858Z" fill="#000008"/>
<path d="M203.458 106.022H209.153V123.513C209.153 125.477 208.684 127.195 207.746 128.668C206.816 130.141 205.514 131.289 203.84 132.114C202.165 132.929 200.214 133.337 197.987 133.337C195.752 133.337 193.797 132.929 192.122 132.114C190.447 131.289 189.145 130.141 188.216 128.668C187.287 127.195 186.822 125.477 186.822 123.513V106.022H192.517V123.026C192.517 124.052 192.74 124.964 193.187 125.762C193.643 126.559 194.283 127.186 195.107 127.642C195.931 128.098 196.892 128.326 197.987 128.326C199.092 128.326 200.052 128.098 200.868 127.642C201.692 127.186 202.327 126.559 202.774 125.762C203.23 124.964 203.458 124.052 203.458 123.026V106.022Z" fill="#000008"/>
<path d="M228.488 113.768C228.383 112.707 227.932 111.883 227.134 111.295C226.336 110.708 225.253 110.414 223.885 110.414C222.956 110.414 222.171 110.546 221.531 110.809C220.891 111.063 220.4 111.418 220.058 111.874C219.725 112.33 219.559 112.847 219.559 113.426C219.541 113.908 219.642 114.329 219.861 114.688C220.089 115.048 220.4 115.359 220.795 115.622C221.189 115.876 221.645 116.1 222.163 116.293C222.68 116.477 223.232 116.635 223.82 116.766L226.24 117.345C227.414 117.608 228.493 117.958 229.475 118.397C230.457 118.835 231.307 119.374 232.026 120.014C232.745 120.655 233.302 121.409 233.696 122.276C234.1 123.144 234.306 124.14 234.314 125.262C234.306 126.91 233.885 128.339 233.052 129.549C232.228 130.75 231.035 131.684 229.475 132.35C227.923 133.008 226.051 133.337 223.859 133.337C221.685 133.337 219.791 133.004 218.178 132.337C216.573 131.671 215.32 130.685 214.417 129.378C213.522 128.063 213.053 126.437 213.009 124.499H218.52C218.581 125.402 218.84 126.156 219.296 126.761C219.76 127.357 220.378 127.809 221.15 128.116C221.93 128.414 222.811 128.563 223.793 128.563C224.758 128.563 225.595 128.423 226.305 128.142C227.024 127.861 227.581 127.471 227.976 126.971C228.37 126.472 228.567 125.897 228.567 125.249C228.567 124.644 228.388 124.135 228.028 123.723C227.677 123.311 227.16 122.96 226.476 122.671C225.801 122.382 224.973 122.119 223.991 121.882L221.058 121.145C218.787 120.593 216.994 119.73 215.679 118.555C214.364 117.38 213.711 115.797 213.72 113.807C213.711 112.176 214.145 110.752 215.022 109.533C215.907 108.314 217.121 107.363 218.664 106.679C220.208 105.995 221.961 105.653 223.925 105.653C225.924 105.653 227.669 105.995 229.159 106.679C230.658 107.363 231.824 108.314 232.657 109.533C233.49 110.752 233.92 112.163 233.946 113.768H228.488Z" fill="#000008"/>
<path d="M248.081 132.955H238.533V106.022H248.16C250.869 106.022 253.943 106.561 255.898 107.639C257.853 108.709 259.356 110.247 260.409 112.255C261.469 114.263 262 116.665 262 119.462C262 122.268 261.469 124.679 260.409 126.695C259.356 128.712 257.844 130.259 255.871 131.338C253.907 132.416 250.816 132.955 248.081 132.955ZM244.228 128.076H247.844C249.528 128.076 251.685 127.778 252.833 127.182C253.991 126.577 254.859 125.643 255.437 124.381C256.025 123.109 256.318 121.47 256.318 119.462C256.318 117.472 256.025 115.846 255.437 114.583C254.859 113.32 253.995 112.391 252.847 111.795C251.698 111.199 249.541 110.901 247.857 110.901H244.228V128.076Z" fill="#000008"/>
<path d="M133.696 103.429L128.395 98L115.047 111.476L120.348 116.776L133.696 103.429Z" fill="#F0B90B"/>
<path d="M141.743 111.476L136.442 106.047L115.047 127.57L120.348 132.871L141.743 111.476Z" fill="#F0B90B"/>
<path d="M112.301 114.094L117.602 119.523L112.301 124.823L107 119.523L112.301 114.094Z" fill="#F0B90B"/>
<path d="M149.79 119.523L144.489 114.094L123.094 135.617L128.395 140.918L149.79 119.523Z" fill="#F0B90B"/>
</g>
<defs>
<filter id="filter0_ddd_1157_19027" x="0" y="0" width="368" height="304" filterUnits="userSpaceOnUse" color-interpolation-filters="sRGB">
<feFlood flood-opacity="0" result="BackgroundImageFix"/>
<feColorMatrix in="SourceAlpha" type="matrix" values="0 0 0 0 0 0 0 0 0 0 0 0 0 0 0 0 0 0 127 0" result="hardAlpha"/>
<feOffset dy="-1.4146"/>
<feGaussianBlur stdDeviation="12.5295"/>
<feColorMatrix type="matrix" values="0 0 0 0 0.717647 0 0 0 0 0.717647 0 0 0 0 0.717647 0 0 0 0.0282725 0"/>
<feBlend mode="normal" in2="BackgroundImageFix" result="effect1_dropShadow_1157_19027"/>
<feColorMatrix in="SourceAlpha" type="matrix" values="0 0 0 0 0 0 0 0 0 0 0 0 0 0 0 0 0 0 127 0" result="hardAlpha"/>
<feOffset dy="2.02905"/>
<feGaussianBlur stdDeviation="18.7294"/>
<feColorMatrix type="matrix" values="0 0 0 0 0.717647 0 0 0 0 0.717647 0 0 0 0 0.717647 0 0 0 0.0417275 0"/>
<feBlend mode="normal" in2="effect1_dropShadow_1157_19027" result="effect2_dropShadow_1157_19027"/>
<feColorMatrix in="SourceAlpha" type="matrix" values="0 0 0 0 0 0 0 0 0 0 0 0 0 0 0 0 0 0 127 0" result="hardAlpha"/>
<feOffset dy="33"/>
<feGaussianBlur stdDeviation="40"/>
<feColorMatrix type="matrix" values="0 0 0 0 0.717647 0 0 0 0 0.717647 0 0 0 0 0.717647 0 0 0 0.07 0"/>
<feBlend mode="normal" in2="effect2_dropShadow_1157_19027" result="effect3_dropShadow_1157_19027"/>
<feBlend mode="normal" in="SourceGraphic" in2="effect3_dropShadow_1157_19027" result="shape"/>
</filter>
</defs>
</svg>
