<svg width="368" height="304" viewBox="0 0 368 304" fill="none" xmlns="http://www.w3.org/2000/svg">
<g filter="url(#filter0_ddd_1157_18912)">
<rect x="80" y="47" width="208" height="144" rx="24" fill="white"/>
<rect x="81" y="48" width="206" height="142" rx="23" stroke="#EBEFF6" stroke-width="2"/>
<path d="M138.878 123.098C136.716 131.767 127.936 137.043 119.265 134.881C110.598 132.72 105.322 123.939 107.485 115.27C109.645 106.599 118.426 101.323 127.094 103.484C135.764 105.646 141.039 114.428 138.878 123.098Z" fill="#F7931A"/>
<path d="M130.313 116.877C130.636 114.724 128.996 113.567 126.754 112.794L127.482 109.877L125.706 109.435L124.998 112.275C124.531 112.159 124.052 112.049 123.575 111.94L124.288 109.081L122.514 108.639L121.786 111.555C121.4 111.467 121.021 111.38 120.652 111.288L120.654 111.279L118.206 110.668L117.733 112.564C117.733 112.564 119.051 112.866 119.023 112.885C119.742 113.064 119.872 113.54 119.85 113.918L119.022 117.241C119.072 117.253 119.136 117.271 119.207 117.3C119.147 117.285 119.084 117.269 119.019 117.253L117.858 121.908C117.77 122.127 117.547 122.454 117.044 122.33C117.062 122.356 115.754 122.008 115.754 122.008L114.872 124.04L117.183 124.616C117.613 124.724 118.034 124.837 118.449 124.943L117.714 127.893L119.487 128.336L120.215 125.417C120.699 125.548 121.17 125.67 121.63 125.784L120.905 128.689L122.68 129.132L123.415 126.187C126.443 126.76 128.719 126.529 129.678 123.791C130.45 121.586 129.639 120.314 128.046 119.484C129.206 119.217 130.08 118.454 130.313 116.877ZM126.257 122.566C125.708 124.771 121.996 123.579 120.792 123.28L121.767 119.372C122.971 119.672 126.83 120.267 126.257 122.566ZM126.806 116.846C126.305 118.851 123.215 117.832 122.213 117.582L123.097 114.037C124.099 114.287 127.327 114.754 126.806 116.846Z" fill="white"/>
<path d="M154.421 112.793C155.734 112.793 156.867 113.029 157.82 113.49C158.777 113.957 159.567 114.585 160.201 115.375C160.826 116.168 161.291 117.096 161.592 118.16C161.89 119.227 162.04 120.373 162.04 121.6C162.04 123.486 161.694 125.267 160.997 126.946C160.3 128.627 159.353 130.086 158.15 131.33C156.947 132.572 155.527 133.552 153.89 134.275C152.255 135 150.477 135.362 148.569 135.362C148.322 135.362 147.888 135.355 147.275 135.342C146.662 135.329 145.958 135.266 145.169 135.159C144.375 135.049 143.535 134.885 142.649 134.665C141.763 134.45 140.921 134.148 140.129 133.765L147.215 103.99L153.562 103.007L151.024 113.573C151.568 113.328 152.115 113.138 152.661 113C153.208 112.864 153.794 112.793 154.421 112.793ZM149.098 130.327C150.053 130.327 150.954 130.092 151.8 129.63C152.649 129.168 153.381 128.544 153.994 127.766C154.608 126.986 155.093 126.106 155.447 125.124C155.801 124.141 155.98 123.116 155.98 122.049C155.98 120.739 155.761 119.717 155.325 118.978C154.889 118.242 154.081 117.872 152.908 117.872C152.524 117.872 152.029 117.946 151.415 118.077C150.799 118.216 150.248 118.504 149.754 118.939L147.052 130.159C147.215 130.188 147.359 130.216 147.482 130.241C147.602 130.269 147.735 130.289 147.868 130.303C148.008 130.318 148.168 130.326 148.362 130.326C148.555 130.326 148.798 130.327 149.098 130.327Z" fill="#4D4D4D"/>
<path d="M168.623 134.789H162.561L167.68 113.248H173.784L168.623 134.789ZM171.573 110.623C170.727 110.623 169.96 110.371 169.279 109.866C168.593 109.365 168.253 108.592 168.253 107.552C168.253 106.979 168.369 106.442 168.6 105.935C168.834 105.43 169.14 104.994 169.523 104.624C169.906 104.257 170.35 103.964 170.853 103.743C171.36 103.525 171.899 103.416 172.474 103.416C173.319 103.416 174.082 103.668 174.765 104.173C175.446 104.68 175.789 105.452 175.789 106.488C175.789 107.062 175.673 107.601 175.44 108.107C175.209 108.613 174.903 109.048 174.52 109.418C174.14 109.786 173.692 110.078 173.19 110.297C172.682 110.518 172.145 110.623 171.573 110.623Z" fill="#4D4D4D"/>
<path d="M179.095 107.881L185.445 106.898L183.885 113.248H190.685L189.457 118.243H182.699L180.898 125.778C180.732 126.406 180.638 126.993 180.612 127.538C180.582 128.086 180.651 128.556 180.815 128.952C180.978 129.349 181.271 129.655 181.696 129.871C182.118 130.091 182.724 130.202 183.518 130.202C184.172 130.202 184.809 130.14 185.425 130.016C186.037 129.895 186.658 129.726 187.286 129.505L187.738 134.176C186.919 134.476 186.032 134.735 185.076 134.952C184.119 135.173 182.985 135.279 181.675 135.279C179.792 135.279 178.332 134.999 177.292 134.442C176.253 133.881 175.519 133.115 175.08 132.145C174.646 131.179 174.452 130.065 174.507 128.81C174.563 127.552 174.752 126.229 175.08 124.836L179.095 107.881Z" fill="#4D4D4D"/>
<path d="M190.418 126.19C190.418 124.334 190.718 122.584 191.318 120.946C191.918 119.307 192.781 117.873 193.901 116.643C195.017 115.419 196.377 114.449 197.978 113.737C199.571 113.029 201.354 112.671 203.32 112.671C204.55 112.671 205.649 112.788 206.616 113.021C207.587 113.256 208.465 113.56 209.26 113.941L207.169 118.695C206.623 118.474 206.056 118.278 205.47 118.101C204.884 117.921 204.167 117.834 203.32 117.834C201.297 117.834 199.697 118.531 198.507 119.921C197.321 121.313 196.724 123.185 196.724 125.534C196.724 126.926 197.024 128.052 197.627 128.913C198.227 129.775 199.335 130.203 200.944 130.203C201.738 130.203 202.504 130.12 203.237 129.958C203.977 129.794 204.63 129.588 205.205 129.344L205.657 134.217C204.891 134.515 204.045 134.783 203.118 135.018C202.188 135.245 201.082 135.363 199.799 135.363C198.105 135.363 196.671 135.115 195.499 134.627C194.325 134.132 193.356 133.474 192.592 132.64C191.825 131.805 191.273 130.83 190.933 129.71C190.592 128.591 190.418 127.416 190.418 126.19Z" fill="#4D4D4D"/>
<path d="M217.346 135.362C215.899 135.362 214.642 135.142 213.576 134.705C212.513 134.269 211.633 133.656 210.936 132.862C210.239 132.073 209.717 131.136 209.36 130.058C209.002 128.98 208.83 127.786 208.83 126.477C208.83 124.836 209.094 123.196 209.626 121.56C210.156 119.92 210.942 118.447 211.983 117.138C213.016 115.827 214.29 114.755 215.79 113.919C217.288 113.088 219.012 112.67 220.947 112.67C222.368 112.67 223.618 112.891 224.699 113.328C225.774 113.763 226.66 114.381 227.361 115.171C228.054 115.965 228.58 116.897 228.934 117.977C229.291 119.053 229.467 120.25 229.467 121.559C229.467 123.195 229.207 124.836 228.691 126.477C228.175 128.11 227.408 129.586 226.397 130.899C225.388 132.208 224.125 133.28 222.609 134.112C221.095 134.944 219.339 135.362 217.346 135.362ZM220.375 117.833C219.477 117.833 218.682 118.094 218.002 118.61C217.319 119.131 216.746 119.786 216.284 120.577C215.817 121.371 215.47 122.236 215.236 123.178C215.004 124.121 214.89 125.012 214.89 125.859C214.89 127.226 215.111 128.291 215.544 129.057C215.983 129.819 216.773 130.202 217.92 130.202C218.822 130.202 219.612 129.944 220.297 129.423C220.975 128.905 221.549 128.249 222.015 127.457C222.479 126.668 222.829 125.799 223.063 124.857C223.292 123.916 223.409 123.02 223.409 122.174C223.409 120.811 223.189 119.744 222.752 118.979C222.315 118.217 221.522 117.833 220.375 117.833Z" fill="#4D4D4D"/>
<path d="M236.074 134.789H230.007L235.127 113.248H241.233L236.074 134.789ZM239.02 110.623C238.174 110.623 237.407 110.371 236.728 109.866C236.045 109.365 235.702 108.592 235.702 107.552C235.702 106.979 235.82 106.442 236.051 105.935C236.282 105.43 236.59 104.994 236.973 104.624C237.354 104.257 237.802 103.964 238.304 103.743C238.808 103.525 239.347 103.416 239.92 103.416C240.767 103.416 241.533 103.668 242.215 104.173C242.897 104.68 243.241 105.452 243.241 106.488C243.241 107.062 243.119 107.601 242.89 108.107C242.661 108.613 242.353 109.048 241.971 109.418C241.587 109.786 241.145 110.078 240.641 110.297C240.133 110.518 239.595 110.623 239.02 110.623Z" fill="#4D4D4D"/>
<path d="M245.599 114.229C246.06 114.095 246.573 113.933 247.132 113.757C247.693 113.581 248.32 113.417 249.019 113.269C249.712 113.117 250.493 112.994 251.352 112.898C252.212 112.8 253.191 112.753 254.278 112.753C257.475 112.753 259.679 113.684 260.896 115.54C262.112 117.397 262.322 119.938 261.533 123.158L258.745 134.789H252.643L255.345 123.403C255.51 122.692 255.64 122.004 255.735 121.333C255.832 120.667 255.826 120.081 255.714 119.573C255.606 119.071 255.352 118.661 254.958 118.343C254.558 118.029 253.954 117.872 253.134 117.872C252.343 117.872 251.539 117.957 250.719 118.121L246.745 134.789H240.641L245.599 114.229Z" fill="#4D4D4D"/>
</g>
<defs>
<filter id="filter0_ddd_1157_18912" x="0" y="0" width="368" height="304" filterUnits="userSpaceOnUse" color-interpolation-filters="sRGB">
<feFlood flood-opacity="0" result="BackgroundImageFix"/>
<feColorMatrix in="SourceAlpha" type="matrix" values="0 0 0 0 0 0 0 0 0 0 0 0 0 0 0 0 0 0 127 0" result="hardAlpha"/>
<feOffset dy="-1.4146"/>
<feGaussianBlur stdDeviation="12.5295"/>
<feColorMatrix type="matrix" values="0 0 0 0 0.717647 0 0 0 0 0.717647 0 0 0 0 0.717647 0 0 0 0.0282725 0"/>
<feBlend mode="normal" in2="BackgroundImageFix" result="effect1_dropShadow_1157_18912"/>
<feColorMatrix in="SourceAlpha" type="matrix" values="0 0 0 0 0 0 0 0 0 0 0 0 0 0 0 0 0 0 127 0" result="hardAlpha"/>
<feOffset dy="2.02905"/>
<feGaussianBlur stdDeviation="18.7294"/>
<feColorMatrix type="matrix" values="0 0 0 0 0.717647 0 0 0 0 0.717647 0 0 0 0 0.717647 0 0 0 0.0417275 0"/>
<feBlend mode="normal" in2="effect1_dropShadow_1157_18912" result="effect2_dropShadow_1157_18912"/>
<feColorMatrix in="SourceAlpha" type="matrix" values="0 0 0 0 0 0 0 0 0 0 0 0 0 0 0 0 0 0 127 0" result="hardAlpha"/>
<feOffset dy="33"/>
<feGaussianBlur stdDeviation="40"/>
<feColorMatrix type="matrix" values="0 0 0 0 0.717647 0 0 0 0 0.717647 0 0 0 0 0.717647 0 0 0 0.07 0"/>
<feBlend mode="normal" in2="effect2_dropShadow_1157_18912" result="effect3_dropShadow_1157_18912"/>
<feBlend mode="normal" in="SourceGraphic" in2="effect3_dropShadow_1157_18912" result="shape"/>
</filter>
</defs>
</svg>
