<svg width="90" height="90" viewBox="0 0 90 90" fill="none" xmlns="http://www.w3.org/2000/svg">
<rect x="5" y="5" width="80" height="80" rx="16" fill="#F7931A"/>
<path d="M62.5276 40.2957C63.2476 34.9545 59.1894 32.1661 53.6256 30.281L55.3537 23.0547L50.955 21.9943L49.2794 29.0635C48.1143 28.7886 46.936 28.5137 45.7709 28.278L47.4466 21.2088L42.9956 20.1484L41.2676 27.3747C40.325 27.1522 39.3694 26.982 38.4268 26.7595L32.3656 25.3063L31.2529 29.9799C31.2529 29.9799 34.5387 30.6999 34.4209 30.7654C36.2013 31.2105 36.5417 32.3756 36.4762 33.2658L34.5256 41.5001C34.6435 41.5525 34.8006 41.5525 34.9707 41.6703C34.8006 41.6179 34.6958 41.6179 34.5256 41.5656L31.8551 53.0858C31.6325 53.6356 31.0696 54.4211 29.8521 54.1461C29.9045 54.1985 26.6186 53.3607 26.6186 53.3607L24.5371 58.427L30.271 59.7623C31.3314 60.0372 32.3918 60.2597 33.3867 60.5477L31.6587 67.8395L36.0573 68.8999L37.7853 61.6736C39.0159 62.0008 40.181 62.2888 41.2938 62.5638L39.5657 69.7377L43.9644 70.7981L45.6924 63.5063C53.2067 64.8416 58.8228 64.2263 61.1007 57.3797C62.9334 51.9207 60.9305 48.805 56.9246 46.7496C59.857 46.082 61.9778 44.1838 62.5276 40.2957ZM52.6307 54.4734C51.3478 59.9324 42.1185 57.0917 39.1599 56.3716L41.4378 46.6842C44.4487 47.4173 53.966 48.7526 52.6307 54.4734ZM53.8482 40.2957C52.6831 45.2442 44.9986 42.8616 42.4982 42.2463L44.6189 33.4621C47.067 34.0643 55.0787 35.1247 53.8482 40.2957Z" fill="white"/>
</svg>
