<svg width="48" height="48" viewBox="0 0 48 48" fill="none" xmlns="http://www.w3.org/2000/svg">
<g clip-path="url(#clip0_1_956)">
<path d="M34.6158 28.3346V16H37.0971V28.3346H34.6158Z" fill="#F7A600"/>
<path d="M5.71522 31.9979H0.400024V19.6632H5.49974C7.98103 19.6632 9.4241 21.0149 9.4241 23.1305C9.4241 24.5017 8.49688 25.3832 7.85697 25.6771C8.62095 26.0232 9.60694 26.8002 9.60694 28.4522C9.60694 30.7507 7.98103 31.9979 5.71522 31.9979ZM5.31038 21.8115H2.88785V24.6519H5.31038C6.36166 24.6519 6.94934 24.0773 6.94934 23.2284C6.94934 22.3796 6.36166 21.8115 5.31038 21.8115ZM5.46709 26.8133H2.88132V29.843H5.46709C6.5902 29.843 7.12564 29.1509 7.12564 28.3151C7.12564 27.4793 6.5902 26.8133 5.46709 26.8133Z" fill="#DCE0EF"/>
<path d="M17.1684 26.9373V31.9979H14.7067V26.9373L10.8868 19.6632H13.577L15.9473 24.6323L18.285 19.6632H20.9752L17.1684 26.9373Z" fill="#DCE0EF"/>
<path d="M28.0142 31.9979H22.699V19.6632H27.7988C30.28 19.6632 31.7231 21.0149 31.7231 23.1305C31.7231 24.5017 30.7959 25.3832 30.156 25.6771C30.92 26.0232 31.9059 26.8002 31.9059 28.4522C31.8994 30.7507 30.28 31.9979 28.0142 31.9979ZM27.6029 21.8115H25.1803V24.6519H27.6029C28.6541 24.6519 29.2418 24.0773 29.2418 23.2284C29.2418 22.3796 28.6541 21.8115 27.6029 21.8115ZM27.7596 26.8133H25.1738V29.843H27.7596C28.8827 29.843 29.4181 29.1509 29.4181 28.3151C29.4181 27.4793 28.8892 26.8133 27.7596 26.8133Z" fill="#DCE0EF"/>
<path d="M45.0829 21.8115V31.9979H42.6016V21.8115H39.2911V19.6632H48.4V21.8115H45.0829Z" fill="#DCE0EF"/>
</g>
<defs>
<clipPath id="clip0_1_956">
<rect width="48" height="48" fill="white"/>
</clipPath>
</defs>
</svg>
