<svg width="48" height="48" viewBox="0 0 48 48" fill="none" xmlns="http://www.w3.org/2000/svg">
<path d="M23 0L2 12V36L23 48L44 36V12L23 0ZM23 0L2 12V36L23 48L44 36V12L23 0Z" fill="white"/>
<path d="M30.8958 38.0156H28.0501L24.6433 34.901V33.3038L28.1703 29.9496V24.6389L32.7796 21.6441L38.0301 25.5972L30.8958 38.0156ZM19.1122 29.6302L19.6333 24.6389L17.9098 20.1667H28.0902L26.4068 24.6389L26.8878 29.6302H22.9599H19.1122ZM21.4369 34.901L18.0301 38.0556H15.1443L7.96994 25.5972L13.2605 21.684L17.9098 24.6389V29.9496L21.4369 33.3038V34.901ZM15.1042 10.9427H30.8557L32.7395 18.9288H13.2605L15.1042 10.9427ZM23 1L3 12.5V35.5L23 47L43 35.5V12.5L23 1Z" fill="#03316C"/>
<path fill-rule="evenodd" clip-rule="evenodd" d="M4 13.1609V34.8391L23.009 45.6967L42.018 34.8391V13.1609L23.009 2.30326L4 13.1609ZM23.009 0L2 12V36L23.009 48L44.018 36V12L23.009 0Z" fill="white"/>
</svg>
