<svg width="90" height="90" viewBox="0 0 90 90" fill="none" xmlns="http://www.w3.org/2000/svg">
<rect x="5" y="5" width="80" height="80" rx="16" fill="#ECEFF0"/>
<path d="M45.0287 54.8994C44.8733 54.9522 44.7847 54.817 44.679 54.7548C39.4988 51.6975 34.3242 48.638 29.1554 45.5765C29.1054 45.5512 29.0534 45.5299 29 45.5128V45.4444L29.0917 45.3916C29.2219 45.3574 29.35 45.3159 29.4756 45.2673L41.6828 39.713C42.7706 39.2173 43.8585 38.7293 44.9463 38.2382H45.024C45.024 38.3936 45.024 38.5319 45.024 38.6796C45.0282 44.0867 45.0297 49.4933 45.0287 54.8994Z" fill="#343535"/>
<path d="M45.0364 38.242H44.9587C44.9587 38.0866 44.9742 37.9312 44.9742 37.768C44.9742 31.6947 44.9742 25.6209 44.9742 19.5466C44.9564 19.3905 44.9669 19.2326 45.0053 19.0803H45.0379C45.6767 20.0236 46.233 21.0183 46.8205 21.9927C51.4744 29.7122 56.1257 37.4308 60.7745 45.1483C60.8195 45.2244 60.8553 45.3037 60.8957 45.3876C60.764 45.3595 60.6347 45.3215 60.5087 45.2741C59.6555 44.8887 58.7992 44.4971 57.9538 44.1039C56.6298 43.4978 55.3052 42.8928 53.9801 42.2888L47.5959 39.3967C46.7459 39.005 45.8911 38.6243 45.0364 38.242Z" fill="#2F3030"/>
<path d="M45.0104 19.0723C44.972 19.2246 44.9615 19.3825 44.9793 19.5385C44.9793 25.6118 44.9793 31.6856 44.9793 37.76C44.9793 37.9154 44.97 38.0708 44.9638 38.234C43.876 38.725 42.7881 39.213 41.7003 39.7088L29.493 45.263C29.3675 45.3116 29.2394 45.3531 29.1092 45.3873C29.462 44.6538 29.9204 43.9887 30.3385 43.2862C35.182 35.2351 40.0291 27.1856 44.8799 19.1376C44.9119 19.093 44.9467 19.0504 44.984 19.0101L45.0104 19.0723Z" fill="#828384"/>
<path d="M45.0364 38.242C45.8911 38.6243 46.7461 39.0052 47.5993 39.3906L53.9834 42.2827C55.3096 42.8857 56.6342 43.4907 57.9572 44.0979C58.8088 44.4879 59.6667 44.8827 60.5121 45.2681C60.6381 45.3155 60.7674 45.3534 60.899 45.3815C61.0544 45.5758 60.8244 45.5835 60.7545 45.6255C59.4289 46.4181 58.0971 47.1998 56.7683 47.9861C52.9546 50.2426 49.142 52.4986 45.3304 54.7541C45.234 54.81 45.1297 54.8512 45.0287 54.8994C45.0287 49.4943 45.0289 44.0896 45.0289 38.6835C45.0304 38.5358 45.0348 38.3896 45.0364 38.242Z" fill="#131313"/>
<path d="M44.9741 57.9697L54.959 52.0845C56.8653 50.9593 58.7706 49.8331 60.6748 48.7059L60.8473 48.6111C60.8644 48.7665 60.7572 48.8489 60.6919 48.939C56.3405 55.0734 51.9891 61.2058 47.6377 67.3361C46.8141 68.4985 45.992 69.6672 45.1606 70.8203C45.117 70.8809 45.0502 71.1653 44.9166 70.8638C45.0222 70.7737 44.9756 70.6525 44.9756 70.553C44.9767 66.357 44.9761 62.1626 44.9741 57.9697Z" fill="#2F3030"/>
<path d="M44.9732 57.9705C44.9732 62.1634 44.9732 66.3552 44.9732 70.546C44.9732 70.6532 45.0198 70.7745 44.9142 70.8568C44.6919 70.7232 44.5956 70.4838 44.4479 70.2865C39.4024 63.1792 34.3594 56.0709 29.3191 48.9616C29.2554 48.8714 29.1963 48.7751 29.131 48.6756C29.2616 48.5995 29.3315 48.7036 29.4077 48.7487C34.5102 51.7615 39.6117 54.7769 44.7121 57.7949C44.8069 57.8539 44.8877 57.9145 44.9732 57.9705Z" fill="#828384"/>
<path d="M45.0116 19.0722L44.9743 19.0147C45.0427 18.9712 45.0333 19.0349 45.0442 19.0676L45.0116 19.0722Z" fill="#393939"/>
</svg>
