<svg width="368" height="304" viewBox="0 0 368 304" fill="none" xmlns="http://www.w3.org/2000/svg">
<g filter="url(#filter0_ddd_1157_18958)">
<rect x="80" y="47" width="208" height="144" rx="24" fill="white"/>
<rect x="81" y="48" width="206" height="142" rx="23" stroke="#EBEFF6" stroke-width="2"/>
<path d="M184.567 113.326C184.371 113.393 184.259 113.222 184.125 113.144C177.585 109.284 171.051 105.421 164.525 101.555C164.462 101.524 164.397 101.497 164.329 101.475V101.389L164.445 101.322C164.609 101.279 164.771 101.226 164.93 101.165L180.342 94.1522C181.716 93.5263 183.089 92.9102 184.463 92.2901H184.561C184.561 92.4863 184.561 92.661 184.561 92.8474C184.566 99.6744 184.568 106.501 184.567 113.326Z" fill="#343535"/>
<path d="M184.577 92.2949H184.479C184.479 92.0987 184.498 91.9025 184.498 91.6964C184.498 84.0283 184.498 76.3595 184.498 68.6901C184.476 68.4931 184.489 68.2937 184.537 68.1014H184.579C185.385 69.2925 186.088 70.5482 186.829 71.7785C192.705 81.5252 198.578 91.2706 204.448 101.015C204.504 101.111 204.55 101.211 204.601 101.317C204.434 101.281 204.271 101.234 204.112 101.174C203.035 100.687 201.954 100.193 200.886 99.6962C199.214 98.9309 197.542 98.167 195.869 97.4044L187.808 93.7528C186.735 93.2583 185.656 92.7776 184.577 92.2949Z" fill="#2F3030"/>
<path d="M184.544 68.0913C184.495 68.2835 184.482 68.483 184.505 68.6799C184.505 76.3481 184.505 84.0168 184.505 91.6863C184.505 91.8825 184.493 92.0787 184.485 92.2847C183.111 92.9048 181.738 93.5209 180.364 94.1468L164.952 101.16C164.793 101.221 164.631 101.273 164.467 101.317C164.912 100.39 165.491 99.5506 166.019 98.6637C172.134 88.4984 178.254 78.3351 184.379 68.1737C184.42 68.1174 184.463 68.0637 184.511 68.0128L184.544 68.0913Z" fill="#828384"/>
<path d="M184.577 92.2949C185.656 92.7776 186.735 93.2585 187.813 93.7451L195.873 97.3967C197.548 98.158 199.22 98.9219 200.89 99.6885C201.966 100.181 203.049 100.679 204.116 101.166C204.275 101.226 204.439 101.274 204.605 101.309C204.801 101.555 204.511 101.564 204.422 101.617C202.749 102.618 201.067 103.605 199.389 104.598C194.574 107.447 189.76 110.295 184.948 113.143C184.826 113.214 184.694 113.266 184.567 113.326C184.567 106.502 184.567 99.678 184.567 92.8523C184.569 92.6659 184.575 92.4813 184.577 92.2949Z" fill="#131313"/>
<path d="M184.498 117.203L197.105 109.772C199.512 108.352 201.917 106.93 204.322 105.507L204.54 105.387C204.561 105.583 204.426 105.687 204.343 105.801C198.849 113.546 193.355 121.289 187.861 129.029C186.821 130.497 185.783 131.972 184.733 133.428C184.678 133.505 184.594 133.864 184.425 133.483C184.559 133.369 184.5 133.216 184.5 133.091C184.501 127.793 184.501 122.497 184.498 117.203Z" fill="#2F3030"/>
<path d="M184.497 117.204C184.497 122.498 184.497 127.791 184.497 133.082C184.497 133.217 184.556 133.37 184.422 133.474C184.142 133.306 184.02 133.003 183.834 132.754C177.463 123.781 171.096 114.806 164.732 105.829C164.652 105.716 164.577 105.594 164.495 105.468C164.659 105.372 164.748 105.504 164.844 105.561C171.286 109.365 177.727 113.172 184.167 116.982C184.287 117.057 184.389 117.133 184.497 117.204Z" fill="#828384"/>
<path d="M184.545 68.0912L184.498 68.0186C184.585 67.9636 184.573 68.0441 184.587 68.0853L184.545 68.0912Z" fill="#393939"/>
<path d="M155.454 152.492V160.2C155.449 160.358 155.384 160.508 155.272 160.62C155.161 160.732 155.01 160.797 154.852 160.801C154.773 160.804 154.693 160.79 154.619 160.76C154.545 160.731 154.478 160.687 154.422 160.63C154.366 160.574 154.321 160.507 154.292 160.433C154.263 160.359 154.249 160.28 154.251 160.2V152.492C154.251 149.886 152.775 147.299 149.877 147.299C146.16 147.299 144.557 150.542 144.775 153.877C144.775 153.928 144.787 154.071 144.797 154.197C144.805 154.294 144.812 154.381 144.812 154.405V160.182C144.811 160.336 144.756 160.485 144.656 160.601C144.556 160.718 144.417 160.796 144.265 160.82C144.18 160.831 144.093 160.824 144.011 160.798C143.929 160.773 143.854 160.731 143.79 160.674C143.726 160.616 143.675 160.546 143.641 160.468C143.606 160.389 143.589 160.304 143.591 160.218V134.871C143.592 134.712 143.656 134.56 143.768 134.447C143.881 134.335 144.033 134.271 144.192 134.27C144.35 134.274 144.5 134.339 144.612 134.451C144.724 134.563 144.789 134.713 144.793 134.871V149.194C145.832 147.335 147.691 146.078 149.859 146.078C153.431 146.078 155.454 149.194 155.454 152.492Z" fill="#393939"/>
<path d="M136.102 146.514C135.99 146.402 135.84 146.337 135.682 146.333H132.457V141.65C132.458 141.564 132.441 141.479 132.407 141.4C132.373 141.322 132.322 141.251 132.258 141.194C132.194 141.137 132.118 141.095 132.036 141.069C131.954 141.044 131.868 141.037 131.783 141.048C131.63 141.072 131.492 141.149 131.392 141.266C131.291 141.383 131.236 141.532 131.236 141.686V146.333H128.12C127.961 146.334 127.809 146.398 127.696 146.511C127.584 146.623 127.52 146.775 127.518 146.934C127.516 147.014 127.53 147.093 127.56 147.167C127.589 147.241 127.633 147.308 127.69 147.364C127.746 147.421 127.813 147.465 127.887 147.494C127.961 147.524 128.04 147.538 128.12 147.535H131.236V160.273C131.24 160.431 131.305 160.581 131.417 160.693C131.529 160.805 131.679 160.87 131.837 160.874C131.996 160.873 132.148 160.809 132.261 160.697C132.373 160.584 132.437 160.432 132.439 160.273V147.535H135.682C135.762 147.538 135.841 147.524 135.915 147.494C135.989 147.465 136.056 147.421 136.112 147.364C136.169 147.308 136.213 147.241 136.242 147.167C136.272 147.093 136.286 147.014 136.283 146.934C136.279 146.776 136.214 146.626 136.102 146.514Z" fill="#393939"/>
<path fill-rule="evenodd" clip-rule="evenodd" d="M120.798 153.985C120.921 153.865 120.992 153.702 120.995 153.531C120.977 149.649 118.061 146.041 113.979 146.041C109.897 146.041 107 149.686 107 153.567C107 157.448 109.916 161.093 113.979 161.093C116.348 161.093 118.772 160.054 119.993 157.94C120.052 157.848 120.084 157.741 120.084 157.631C120.086 157.551 120.072 157.472 120.043 157.398C120.013 157.324 119.969 157.257 119.913 157.2C119.856 157.144 119.789 157.1 119.715 157.071C119.641 157.041 119.562 157.027 119.482 157.029C119.376 157.034 119.272 157.064 119.18 157.118C119.087 157.172 119.01 157.248 118.954 157.339C117.751 159.07 116.148 159.89 113.979 159.89C110.808 159.89 108.567 157.157 108.257 154.168H120.339C120.51 154.17 120.675 154.104 120.798 153.985ZM113.979 147.244C117.15 147.244 119.446 149.977 119.701 152.966H108.257C108.567 149.977 110.808 147.244 113.979 147.244Z" fill="#393939"/>
<path fill-rule="evenodd" clip-rule="evenodd" d="M176.96 153.985C177.083 153.865 177.153 153.702 177.156 153.531C177.138 149.649 174.186 146.041 170.141 146.041C166.059 146.041 163.162 149.686 163.162 153.567C163.162 157.448 166.077 161.093 170.141 161.093C172.51 161.093 174.933 160.054 176.154 157.94C176.214 157.848 176.246 157.741 176.245 157.631C176.247 157.551 176.233 157.472 176.204 157.398C176.175 157.324 176.13 157.257 176.074 157.2C176.018 157.144 175.951 157.1 175.877 157.071C175.803 157.041 175.723 157.027 175.644 157.029C175.537 157.034 175.433 157.064 175.341 157.118C175.249 157.172 175.171 157.248 175.115 157.339C173.913 159.07 172.309 159.89 170.141 159.89C166.97 159.89 164.729 157.157 164.419 154.168H176.5C176.672 154.17 176.837 154.104 176.96 153.985ZM170.122 147.244C173.293 147.244 175.589 149.977 175.844 152.966H164.401C164.71 149.977 166.952 147.244 170.122 147.244Z" fill="#393939"/>
<path d="M192.008 146.898C192.019 147.059 191.966 147.219 191.86 147.342C191.755 147.465 191.604 147.541 191.443 147.554C187.889 148.082 186.286 150.979 186.286 154.351V160.127C186.286 160.281 186.23 160.43 186.13 160.547C186.03 160.664 185.891 160.741 185.739 160.765C185.654 160.776 185.568 160.769 185.486 160.744C185.404 160.719 185.328 160.676 185.264 160.619C185.2 160.562 185.149 160.492 185.115 160.413C185.08 160.334 185.063 160.249 185.065 160.164V146.989C185.065 146.835 185.12 146.686 185.221 146.569C185.321 146.452 185.459 146.375 185.612 146.351C185.697 146.34 185.783 146.347 185.865 146.372C185.947 146.397 186.023 146.44 186.087 146.497C186.151 146.554 186.202 146.624 186.236 146.703C186.27 146.781 186.287 146.867 186.286 146.952V149.631C187.288 147.936 189.274 146.333 191.352 146.333C191.661 146.333 192.008 146.551 192.008 146.898Z" fill="#393939"/>
<path fill-rule="evenodd" clip-rule="evenodd" d="M211.674 153.985C211.797 153.865 211.867 153.702 211.87 153.531C211.852 149.649 208.936 146.041 204.854 146.041C200.773 146.041 197.875 149.686 197.875 153.567C197.875 157.448 200.791 161.093 204.854 161.093C207.223 161.093 209.647 160.054 210.868 157.94C210.928 157.848 210.959 157.741 210.959 157.631C210.961 157.551 210.947 157.472 210.918 157.398C210.888 157.324 210.844 157.257 210.788 157.2C210.732 157.144 210.664 157.1 210.59 157.071C210.516 157.041 210.437 157.027 210.358 157.029C210.251 157.034 210.147 157.064 210.055 157.118C209.963 157.172 209.885 157.248 209.829 157.339C208.626 159.07 207.023 159.89 204.854 159.89C201.684 159.89 199.442 157.157 199.133 154.168H211.214C211.385 154.17 211.551 154.104 211.674 153.985ZM204.854 147.244C208.025 147.244 210.321 149.977 210.576 152.966H199.133C199.442 149.977 201.684 147.244 204.854 147.244Z" fill="#393939"/>
<path d="M231.405 147.043V160.273C231.4 160.431 231.335 160.581 231.223 160.693C231.112 160.805 230.961 160.87 230.803 160.874C230.724 160.876 230.644 160.862 230.57 160.833C230.496 160.804 230.429 160.759 230.373 160.703C230.317 160.647 230.272 160.58 230.243 160.506C230.214 160.432 230.2 160.352 230.202 160.273V157.758C229.2 159.744 227.432 161.184 225.172 161.184C221.583 161.184 219.596 158.068 219.596 154.77V147.025C219.598 146.866 219.662 146.714 219.774 146.602C219.887 146.489 220.039 146.425 220.198 146.424C220.356 146.428 220.506 146.493 220.618 146.605C220.73 146.717 220.795 146.867 220.799 147.025V154.77C220.799 157.376 222.275 159.963 225.172 159.963C229.236 159.963 230.202 156.155 230.202 151.945V147.007C230.203 146.909 230.228 146.814 230.274 146.728C230.32 146.642 230.386 146.568 230.466 146.513C230.546 146.457 230.639 146.422 230.735 146.41C230.832 146.398 230.93 146.409 231.022 146.442C231.136 146.495 231.233 146.58 231.301 146.687C231.369 146.793 231.405 146.917 231.405 147.043Z" fill="#393939"/>
<path d="M262 160.182V152.437C262 149.157 259.977 146.078 256.424 146.078C253.927 146.078 251.978 147.663 250.975 149.923C250.192 147.645 248.279 146.078 245.818 146.078C243.65 146.078 241.791 147.299 240.753 149.157V146.952C240.754 146.867 240.737 146.781 240.703 146.703C240.668 146.624 240.617 146.554 240.553 146.497C240.489 146.44 240.414 146.397 240.332 146.372C240.25 146.347 240.163 146.34 240.078 146.351C239.926 146.375 239.788 146.452 239.687 146.569C239.587 146.686 239.532 146.835 239.532 146.989V160.2C239.53 160.286 239.547 160.371 239.582 160.449C239.616 160.528 239.667 160.598 239.731 160.655C239.795 160.712 239.87 160.755 239.952 160.78C240.034 160.805 240.121 160.813 240.206 160.801C240.358 160.777 240.497 160.7 240.597 160.583C240.697 160.466 240.752 160.317 240.753 160.164V154.351C240.777 154.313 240.769 154.226 240.76 154.145C240.756 154.107 240.753 154.07 240.753 154.041C240.625 150.178 242.138 147.28 245.818 147.28C248.716 147.28 250.192 149.831 250.192 152.437V160.182C250.19 160.261 250.204 160.341 250.233 160.415C250.262 160.489 250.307 160.556 250.363 160.612C250.419 160.668 250.486 160.713 250.56 160.742C250.634 160.771 250.714 160.785 250.793 160.783C250.951 160.779 251.102 160.714 251.213 160.602C251.325 160.49 251.39 160.34 251.395 160.182V154.205C251.395 151.18 252.779 147.28 256.424 147.28C259.321 147.28 260.797 149.831 260.797 152.437V160.182C260.795 160.261 260.809 160.341 260.838 160.415C260.868 160.489 260.912 160.556 260.968 160.612C261.025 160.668 261.092 160.713 261.166 160.742C261.24 160.771 261.319 160.785 261.399 160.783C261.557 160.779 261.707 160.714 261.819 160.602C261.931 160.49 261.995 160.34 262 160.182Z" fill="#393939"/>
</g>
<defs>
<filter id="filter0_ddd_1157_18958" x="0" y="0" width="368" height="304" filterUnits="userSpaceOnUse" color-interpolation-filters="sRGB">
<feFlood flood-opacity="0" result="BackgroundImageFix"/>
<feColorMatrix in="SourceAlpha" type="matrix" values="0 0 0 0 0 0 0 0 0 0 0 0 0 0 0 0 0 0 127 0" result="hardAlpha"/>
<feOffset dy="-1.4146"/>
<feGaussianBlur stdDeviation="12.5295"/>
<feColorMatrix type="matrix" values="0 0 0 0 0.717647 0 0 0 0 0.717647 0 0 0 0 0.717647 0 0 0 0.0282725 0"/>
<feBlend mode="normal" in2="BackgroundImageFix" result="effect1_dropShadow_1157_18958"/>
<feColorMatrix in="SourceAlpha" type="matrix" values="0 0 0 0 0 0 0 0 0 0 0 0 0 0 0 0 0 0 127 0" result="hardAlpha"/>
<feOffset dy="2.02905"/>
<feGaussianBlur stdDeviation="18.7294"/>
<feColorMatrix type="matrix" values="0 0 0 0 0.717647 0 0 0 0 0.717647 0 0 0 0 0.717647 0 0 0 0.0417275 0"/>
<feBlend mode="normal" in2="effect1_dropShadow_1157_18958" result="effect2_dropShadow_1157_18958"/>
<feColorMatrix in="SourceAlpha" type="matrix" values="0 0 0 0 0 0 0 0 0 0 0 0 0 0 0 0 0 0 127 0" result="hardAlpha"/>
<feOffset dy="33"/>
<feGaussianBlur stdDeviation="40"/>
<feColorMatrix type="matrix" values="0 0 0 0 0.717647 0 0 0 0 0.717647 0 0 0 0 0.717647 0 0 0 0.07 0"/>
<feBlend mode="normal" in2="effect2_dropShadow_1157_18958" result="effect3_dropShadow_1157_18958"/>
<feBlend mode="normal" in="SourceGraphic" in2="effect3_dropShadow_1157_18958" result="shape"/>
</filter>
</defs>
</svg>
