<svg width="48" height="48" viewBox="0 0 48 48" fill="none" xmlns="http://www.w3.org/2000/svg">
<path fill-rule="evenodd" clip-rule="evenodd" d="M22.4921 5.04928C26.6466 4.77912 30.8792 5.62339 34.6205 7.4919C40.1263 10.2159 44.5152 15.146 46.5925 20.9654C47.5082 23.5318 47.9996 26.2558 47.9996 28.9798V39.1103C47.9996 39.5267 48.0108 39.9432 47.9103 40.3485C47.6869 41.3728 46.961 42.2732 46.0117 42.701C45.3529 43.0161 44.5934 43.0499 43.8787 42.9373C42.3487 42.6559 41.1537 41.2039 41.1425 39.6393C41.1313 36.4989 41.1425 33.3584 41.1425 30.2067C41.1648 29.3174 41.176 28.3607 40.6958 27.5727C39.9141 26.1207 38.0379 25.4341 36.519 26.0532C35.2347 26.5147 34.3077 27.8204 34.2966 29.1936C34.2855 32.3904 34.2966 35.5758 34.2966 38.7613C34.2966 39.3579 34.3301 39.9657 34.1514 40.5398C33.8276 41.6654 32.9006 42.5772 31.7838 42.881C30.3208 43.2863 28.6345 42.6334 27.8974 41.2714C27.3949 40.4498 27.4284 39.4592 27.4395 38.5362C27.4284 35.3733 27.4507 32.199 27.4284 29.0361C27.3949 27.4265 26.0882 25.9744 24.5024 25.7718C23.4749 25.6142 22.3916 25.9631 21.6434 26.6948C20.9733 27.3364 20.5824 28.2594 20.5824 29.1936V38.4236C20.5713 39.2003 20.6606 39.9995 20.3702 40.7312C19.9123 42.0481 18.5946 43.0161 17.1985 42.9824C15.7691 43.0612 14.3843 42.0706 13.9264 40.7199C13.6695 40.0558 13.7253 39.3354 13.7253 38.6375C13.7253 35.452 13.7365 32.2666 13.7253 29.0811C13.7142 27.5052 12.4968 26.0644 10.9669 25.7831C9.57087 25.4791 8.02971 26.1882 7.33734 27.4489C7.03579 27.978 6.87945 28.5858 6.87945 29.1824V39.5267C6.89059 40.5285 6.43269 41.5303 5.66211 42.1719C4.50063 43.1962 2.62443 43.2525 1.40717 42.307C0.524886 41.6992 0 40.6523 0 39.5718V29.0923C0.0111388 25.1302 1.00514 21.1793 2.88134 17.6899C4.41128 14.8421 6.52205 12.3095 9.04598 10.2834C12.8431 7.19922 17.6118 5.34197 22.4921 5.04928Z" fill="white"/>
</svg>
