<svg width="48" height="48" viewBox="0 0 48 48" fill="none" xmlns="http://www.w3.org/2000/svg">
<path fill-rule="evenodd" clip-rule="evenodd" d="M6.13063 3.95471C8.40979 3.95471 10.2613 5.7855 10.2613 8.03924V39.7799C10.2613 42.0337 8.40979 43.8645 6.13063 43.8645C3.8514 43.8645 2 42.0337 2 39.7799V8.03924C2.00703 5.7855 3.8514 3.95471 6.13063 3.95471Z" fill="#23AF91"/>
<path fill-rule="evenodd" clip-rule="evenodd" d="M32.4264 1.57142C34.0135 3.17709 33.9997 5.76971 32.3987 7.35441L9.84601 29.7358C8.24501 31.3275 5.65989 31.3136 4.07964 29.708C2.49252 28.1023 2.50634 25.5097 4.10735 23.925L26.6601 1.55062C28.2611 -0.0480868 30.8462 -0.0341661 32.4264 1.57142Z" fill="#23AF91"/>
<path fill-rule="evenodd" clip-rule="evenodd" d="M32.4264 46.4221C34.0135 44.8164 33.9997 42.2237 32.3987 40.6389L9.84601 18.2639C8.24501 16.6722 5.65989 16.6861 4.07964 18.2917C2.49252 19.8974 2.50634 22.4901 4.10735 24.0749L26.6601 46.4499C28.2611 48.0486 30.8462 48.0347 32.4264 46.4221Z" fill="#23AF91"/>
<path fill-rule="evenodd" clip-rule="evenodd" d="M44.8087 29.244C46.4029 30.844 46.396 33.4272 44.7947 35.0133L32.8762 46.8148C31.268 48.4008 28.6713 48.3938 27.0771 46.8009C25.4828 45.201 25.4897 42.6178 27.091 41.0317L39.0095 29.2302C40.6107 27.6442 43.2075 27.6512 44.8087 29.244Z" fill="#23AF91"/>
<path fill-rule="evenodd" clip-rule="evenodd" d="M44.8087 18.7535C46.4029 17.1538 46.396 14.5709 44.7947 12.985L32.8762 1.18504C31.268 -0.400784 28.6713 -0.393824 27.0771 1.19888C25.4828 2.79855 25.4897 5.38149 27.091 6.96732L39.0095 18.7673C40.6177 20.353 43.2144 20.353 44.8087 18.7535Z" fill="#23AF91"/>
<path d="M30.0163 28.2241C32.2976 28.2241 34.147 26.3729 34.147 24.0894C34.147 21.8058 32.2976 19.9546 30.0163 19.9546C27.735 19.9546 25.8857 21.8058 25.8857 24.0894C25.8857 26.3729 27.735 28.2241 30.0163 28.2241Z" fill="#23AF91"/>
</svg>
