<svg width="368" height="304" viewBox="0 0 368 304" fill="none" xmlns="http://www.w3.org/2000/svg">
<g filter="url(#filter0_ddd_1157_19349)">
<rect x="80" y="47" width="208" height="144" rx="24" fill="white"/>
<rect x="81" y="48" width="206" height="142" rx="23" stroke="#EBEFF6" stroke-width="2"/>
<path fill-rule="evenodd" clip-rule="evenodd" d="M128.837 97C116.778 97 107 106.778 107 118.837C107 130.897 116.778 140.674 128.837 140.674C140.897 140.674 150.675 130.897 150.675 118.837C150.649 106.778 140.897 97 128.837 97ZM129.163 119.539L126.907 127.211H139.041C139.468 127.211 139.743 127.612 139.643 128.013L138.59 131.649C138.49 132 138.164 132.25 137.788 132.25H119.235L122.369 121.645L118.909 122.723L119.661 120.216L123.146 119.138L127.559 104.246C127.659 103.895 127.985 103.644 128.361 103.644H133.049C133.475 103.644 133.751 104.045 133.651 104.446L129.915 117.032L133.375 115.954L132.623 118.486L129.163 119.539Z" fill="#345D9D"/>
<path d="M163.285 103.619H161.932C161.681 103.619 161.505 103.769 161.455 104.02L157.945 131.824C157.92 132.1 157.995 132.225 158.271 132.225H159.625C159.901 132.225 160.051 132.1 160.101 131.824L163.636 104.02C163.711 103.744 163.561 103.619 163.285 103.619Z" fill="#345D9D"/>
<path d="M169.027 111.642H170.381C170.657 111.642 170.757 111.792 170.732 112.068L168.25 131.849C168.199 132.125 168.024 132.25 167.773 132.25H166.419C166.169 132.25 166.018 132.125 166.043 131.849L168.55 112.043C168.601 111.767 168.776 111.642 169.027 111.642Z" fill="#345D9D"/>
<path fill-rule="evenodd" clip-rule="evenodd" d="M229.7 111.316C227.819 111.316 226.19 111.842 224.811 112.92C223.432 113.998 222.529 115.402 222.078 117.157C221.702 118.586 221.376 120.592 221.226 121.946L221.19 122.272L221.189 122.278C221.004 123.96 220.849 125.369 220.849 126.735C220.874 128.515 221.451 129.919 222.529 130.997C223.632 132.05 225.137 132.601 227.042 132.601C228.897 132.601 230.527 132.075 231.906 130.997C233.285 129.944 234.188 128.515 234.639 126.735C234.94 125.556 235.241 123.977 235.491 121.946C235.742 119.84 235.867 118.235 235.867 117.132C235.867 115.377 235.316 113.973 234.213 112.92C233.084 111.842 231.58 111.316 229.7 111.316ZM233.511 120.016C233.385 121.018 233.31 121.67 233.285 121.946C233.034 124.002 232.809 125.456 232.608 126.334C232.307 127.637 231.655 128.69 230.678 129.493C229.7 130.295 228.546 130.671 227.268 130.671C225.964 130.671 224.936 130.27 224.159 129.493C223.382 128.715 223.006 127.687 223.006 126.409C223.006 125.732 223.081 124.879 223.206 123.877C223.332 122.874 223.407 122.222 223.432 121.946C223.683 119.99 223.908 118.536 224.109 117.559C224.41 116.255 225.061 115.202 226.039 114.4C227.017 113.597 228.17 113.221 229.449 113.221C230.753 113.221 231.781 113.622 232.558 114.374C233.335 115.152 233.711 116.18 233.711 117.458C233.711 118.185 233.636 119.013 233.511 120.016Z" fill="#345D9D"/>
<path d="M242.261 111.642H243.589C243.865 111.642 243.965 111.792 243.94 112.068L241.458 131.849C241.408 132.125 241.233 132.25 240.982 132.25H239.628C239.377 132.25 239.227 132.125 239.252 131.849L241.784 112.043C241.834 111.792 242.01 111.642 242.261 111.642Z" fill="#345D9D"/>
<path d="M260.688 112.82C259.76 111.842 258.457 111.366 256.752 111.366C255.649 111.366 254.646 111.566 253.718 111.993C252.791 112.419 252.013 113.046 251.362 113.898C251.236 113.998 251.186 113.973 251.186 113.823L251.387 112.068C251.412 111.817 251.311 111.667 251.061 111.667H249.707C249.456 111.667 249.281 111.817 249.23 112.068L246.748 131.849C246.723 132.1 246.798 132.25 247.074 132.25H248.428C248.679 132.25 248.854 132.1 248.879 131.849L250.685 117.659C250.985 116.33 251.612 115.252 252.54 114.475C253.468 113.698 254.571 113.296 255.874 113.296C257.078 113.296 258.03 113.672 258.733 114.425C259.435 115.177 259.785 116.18 259.785 117.458C259.785 117.834 259.76 118.135 259.736 118.361L258.005 131.849C258.005 131.975 258.005 132.05 258.056 132.125C258.131 132.2 258.231 132.25 258.382 132.25H259.736C259.986 132.25 260.162 132.125 260.187 131.849L261.917 118.035C261.967 117.483 261.992 117.082 261.992 116.806C262.067 115.102 261.616 113.773 260.688 112.82Z" fill="#345D9D"/>
<path d="M169.027 104.346C169.428 103.519 170.456 103.218 171.258 103.644C172.085 104.07 172.386 105.073 171.96 105.9C171.534 106.703 170.531 107.029 169.729 106.602C168.927 106.176 168.601 105.148 169.027 104.346Z" fill="#345D9D"/>
<path d="M244.567 103.644C243.765 103.218 242.737 103.519 242.336 104.346C241.91 105.148 242.236 106.176 243.038 106.602C243.84 107.029 244.868 106.703 245.294 105.9C245.695 105.073 245.37 104.07 244.567 103.644Z" fill="#345D9D"/>
<path d="M207.161 112.92C208.539 111.867 210.169 111.316 212.05 111.316C213.955 111.316 215.434 111.842 216.562 112.87C217.666 113.923 218.217 115.327 218.217 117.082V117.559C218.217 117.709 218.092 117.809 217.967 117.809H216.387C216.212 117.809 216.061 117.659 216.061 117.483V117.458C216.061 116.18 215.685 115.152 214.908 114.374C214.13 113.597 213.078 113.221 211.799 113.221C210.52 113.221 209.367 113.597 208.389 114.4C207.411 115.202 206.76 116.255 206.459 117.559C206.258 118.536 206.032 119.99 205.782 121.946C205.765 122.129 205.716 122.542 205.655 123.047C205.624 123.306 205.59 123.588 205.556 123.877C205.431 124.879 205.355 125.732 205.355 126.409C205.355 127.687 205.731 128.715 206.509 129.493C207.286 130.27 208.314 130.671 209.618 130.671C210.896 130.671 212.05 130.295 213.027 129.493C214.005 128.69 214.657 127.637 214.958 126.334C214.958 126.334 214.983 126.283 214.983 126.258C215.008 126.108 215.133 126.058 215.234 126.058H216.913C217.014 126.058 217.114 126.158 217.089 126.283C217.085 126.309 217.08 126.335 217.074 126.36C217.068 126.388 217.062 126.415 217.055 126.442L217.039 126.508L217.021 126.579C217.009 126.631 216.997 126.683 216.989 126.735C216.537 128.515 215.635 129.944 214.256 130.997C212.877 132.075 211.247 132.601 209.392 132.601C207.486 132.601 205.982 132.05 204.879 130.997C203.801 129.919 203.224 128.515 203.199 126.735C203.199 125.372 203.376 123.767 203.543 122.25V122.245L203.575 121.946C203.701 120.843 204.052 118.586 204.428 117.157C204.879 115.402 205.782 113.998 207.161 112.92Z" fill="#345D9D"/>
<path fill-rule="evenodd" clip-rule="evenodd" d="M198.436 112.92C197.332 111.867 195.828 111.316 193.948 111.316C192.067 111.316 190.438 111.842 189.059 112.92C187.68 113.998 186.778 115.402 186.326 117.157C185.969 118.514 185.793 119.735 185.519 121.636L185.474 121.946C185.198 124.002 185.098 125.281 185.098 126.735C185.123 128.515 185.699 129.919 186.778 130.997C187.881 132.05 189.385 132.601 191.29 132.601C193.146 132.601 194.775 132.075 196.154 130.997C197.533 129.944 198.436 128.515 198.887 126.735C198.899 126.659 198.918 126.584 198.937 126.508C198.948 126.465 198.959 126.423 198.968 126.381C198.975 126.348 198.982 126.316 198.987 126.283C199.012 126.158 198.937 126.058 198.812 126.058H197.132C197.032 126.058 196.906 126.108 196.881 126.258C196.881 126.283 196.856 126.334 196.856 126.334C196.555 127.637 195.903 128.69 194.926 129.493C193.948 130.295 192.795 130.671 191.516 130.671C190.212 130.671 189.184 130.27 188.407 129.493C187.63 128.715 187.254 127.687 187.254 126.409C187.254 125.807 187.304 125.055 187.404 124.202L199.589 120.417C199.84 120.341 199.94 120.216 199.99 119.915C200.065 119.288 200.116 118.21 200.116 117.107C200.09 115.528 199.539 113.973 198.436 112.92ZM197.959 118.612C197.959 118.737 197.884 118.837 197.759 118.862L187.655 121.996V121.946C187.906 119.99 188.131 118.536 188.332 117.559C188.633 116.255 189.285 115.202 190.262 114.4C191.24 113.597 192.393 113.221 193.672 113.221C194.976 113.221 196.004 113.622 196.781 114.374C198.009 115.653 198.034 116.957 197.959 118.612Z" fill="#345D9D"/>
<path d="M180.936 130.395C180.986 130.119 180.71 129.944 180.459 130.069C179.607 130.47 177.952 130.871 177.1 130.169C176.481 129.574 176.608 128.503 176.751 127.301L176.774 127.111L178.253 115.202H182.465C182.565 115.202 182.716 115.177 182.791 115.102C182.866 115.001 182.891 114.926 182.916 114.776L183.042 113.823C183.042 113.572 182.941 113.422 182.691 113.422H178.454L179.231 106.853C179.281 106.627 179.206 106.452 178.905 106.452H177.601C177.326 106.452 177.15 106.577 177.125 106.853L176.523 111.466L176.272 113.547L174.492 128.063C174.267 129.969 174.668 131.498 176.222 132.2C177.576 132.802 179.256 132.601 180.459 132.15C180.61 132.075 180.735 131.924 180.76 131.749L180.936 130.395Z" fill="#345D9D"/>
<path d="M129.163 119.539L126.907 127.211H139.041C139.468 127.211 139.743 127.612 139.643 128.013L138.59 131.649C138.49 132 138.164 132.25 137.788 132.25H119.235L122.369 121.645L118.909 122.723L119.661 120.216L123.146 119.138L127.559 104.246C127.659 103.895 127.985 103.644 128.361 103.644H133.049C133.475 103.644 133.751 104.045 133.651 104.446L129.915 117.032L133.375 115.954L132.623 118.486L129.163 119.539Z" fill="white"/>
</g>
<defs>
<filter id="filter0_ddd_1157_19349" x="0" y="0" width="368" height="304" filterUnits="userSpaceOnUse" color-interpolation-filters="sRGB">
<feFlood flood-opacity="0" result="BackgroundImageFix"/>
<feColorMatrix in="SourceAlpha" type="matrix" values="0 0 0 0 0 0 0 0 0 0 0 0 0 0 0 0 0 0 127 0" result="hardAlpha"/>
<feOffset dy="-1.4146"/>
<feGaussianBlur stdDeviation="12.5295"/>
<feColorMatrix type="matrix" values="0 0 0 0 0.717647 0 0 0 0 0.717647 0 0 0 0 0.717647 0 0 0 0.0282725 0"/>
<feBlend mode="normal" in2="BackgroundImageFix" result="effect1_dropShadow_1157_19349"/>
<feColorMatrix in="SourceAlpha" type="matrix" values="0 0 0 0 0 0 0 0 0 0 0 0 0 0 0 0 0 0 127 0" result="hardAlpha"/>
<feOffset dy="2.02905"/>
<feGaussianBlur stdDeviation="18.7294"/>
<feColorMatrix type="matrix" values="0 0 0 0 0.717647 0 0 0 0 0.717647 0 0 0 0 0.717647 0 0 0 0.0417275 0"/>
<feBlend mode="normal" in2="effect1_dropShadow_1157_19349" result="effect2_dropShadow_1157_19349"/>
<feColorMatrix in="SourceAlpha" type="matrix" values="0 0 0 0 0 0 0 0 0 0 0 0 0 0 0 0 0 0 127 0" result="hardAlpha"/>
<feOffset dy="33"/>
<feGaussianBlur stdDeviation="40"/>
<feColorMatrix type="matrix" values="0 0 0 0 0.717647 0 0 0 0 0.717647 0 0 0 0 0.717647 0 0 0 0.07 0"/>
<feBlend mode="normal" in2="effect2_dropShadow_1157_19349" result="effect3_dropShadow_1157_19349"/>
<feBlend mode="normal" in="SourceGraphic" in2="effect3_dropShadow_1157_19349" result="shape"/>
</filter>
</defs>
</svg>
