<svg width="90" height="90" viewBox="0 0 90 90" fill="none" xmlns="http://www.w3.org/2000/svg">
<rect x="5" y="5" width="80" height="80" rx="16" fill="#345D9D"/>
<path d="M41.3848 59.2585L44.8884 47.4441L50.3476 45.896L51.4883 41.9851L46.1106 43.6146L51.8142 24.2228V23.9131C51.81 23.789 51.7813 23.6669 51.7299 23.5538C51.6785 23.4408 51.6053 23.339 51.5145 23.2542C51.4237 23.1694 51.317 23.1034 51.2007 23.0599C51.0843 23.0164 50.9606 22.9962 50.8364 23.0006H43.5848C43.3103 22.9921 43.0408 23.0758 42.8193 23.2382C42.5978 23.4006 42.437 23.6325 42.3626 23.8968L35.5998 46.8738L30.2222 48.5033L29 52.2514L34.3776 50.6218L29.5704 66.999H58.251C58.5262 67.0103 58.7971 66.9278 59.0192 66.765C59.2413 66.6021 59.4014 66.3686 59.4732 66.1027L61.1028 60.4807V60.1711C61.0986 60.0469 61.07 59.9248 61.0185 59.8118C60.9671 59.6987 60.8939 59.5969 60.8031 59.5121C60.7123 59.4274 60.6057 59.3613 60.4893 59.3178C60.373 59.2743 60.2492 59.2542 60.1251 59.2585H41.3848Z" fill="white"/>
</svg>
