<svg width="48" height="48" viewBox="0 0 48 48" fill="none" xmlns="http://www.w3.org/2000/svg">
<path d="M47.2263 29.8198L36.8468 11.816C34.5716 8.06236 29.0229 8.02396 26.8264 11.9753L15.9286 30.6992C13.8934 34.1321 16.4086 38.4425 20.4809 38.4425H42.3169C46.4275 38.4425 49.5014 34.0112 47.2263 29.8198Z" fill="#3156AA"/>
<path d="M32.2561 31.2176L31.6168 30.1001C31.0177 29.0614 29.7006 26.8265 29.7006 26.8265L20.9186 11.576C18.6434 8.18332 13.254 7.903 10.9789 12.175L0.758783 29.8601C-1.35704 33.5734 1.15814 38.4022 5.74882 38.4425H27.4658H36.7278H42.2362C36.6087 38.4828 34.8116 35.5683 32.2561 31.2176Z" fill="#1972E2"/>
<path d="M32.2581 31.2175L31.6187 30.1001C31.0197 29.0614 29.7026 26.8265 29.7026 26.8265L24.0328 16.8463L15.8883 30.7394C13.8531 34.1724 16.3683 38.4847 20.4386 38.4847H27.4255H36.6875H42.2362C36.5684 38.4425 34.8116 35.5682 32.2581 31.2175Z" fill="url(#paint0_linear_1_801)"/>
<defs>
<linearGradient id="paint0_linear_1_801" x1="13.5101" y1="24.4367" x2="37.1646" y2="33.7376" gradientUnits="userSpaceOnUse">
<stop stop-color="#264CA2" stop-opacity="0"/>
<stop offset="1" stop-color="#234588"/>
</linearGradient>
</defs>
</svg>
