<svg width="90" height="90" viewBox="0 0 90 90" fill="none" xmlns="http://www.w3.org/2000/svg">
<rect x="5" y="5" width="80" height="80" rx="16" fill="#000008"/>
<path d="M37.4443 25H25.8889C25.398 25 25 25.3979 25 25.889V37.4444C25 37.9354 25.398 38.3334 25.8889 38.3334H37.4443C37.9353 38.3334 38.3332 37.9354 38.3332 37.4444V25.889C38.3332 25.3979 37.9353 25 37.4443 25Z" fill="white"/>
<path d="M50.7842 38.3339H39.2288C38.7379 38.3339 38.3399 38.7318 38.3399 39.2227V50.7784C38.3399 51.2693 38.7379 51.6673 39.2288 51.6673H50.7842C51.2751 51.6673 51.6731 51.2693 51.6731 50.7784V39.2227C51.6731 38.7318 51.2751 38.3339 50.7842 38.3339Z" fill="white"/>
<path d="M52.5557 25H64.1112C64.6021 25 65 25.3979 65 25.889V37.4444C65 37.9354 64.6021 38.3334 64.1112 38.3334H52.5557C52.0648 38.3334 51.6668 37.9354 51.6668 37.4444V25.889C51.6668 25.3979 52.0648 25 52.5557 25Z" fill="white"/>
<path d="M37.4443 51.6666H25.8889C25.398 51.6666 25 52.0645 25 52.5554V64.111C25 64.6019 25.398 65 25.8889 65H37.4443C37.9353 65 38.3332 64.6019 38.3332 64.111V52.5554C38.3332 52.0645 37.9353 51.6666 37.4443 51.6666Z" fill="white"/>
<path d="M52.5557 51.6666H64.1112C64.6021 51.6666 65 52.0645 65 52.5554V64.111C65 64.6019 64.6021 65 64.1112 65H52.5557C52.0648 65 51.6668 64.6019 51.6668 64.111V52.5554C51.6668 52.0645 52.0648 51.6666 52.5557 51.6666Z" fill="white"/>
</svg>
