<svg width="368" height="304" viewBox="0 0 368 304" fill="none" xmlns="http://www.w3.org/2000/svg">
<g filter="url(#filter0_ddd_1160_3118)">
<rect x="80" y="47" width="208" height="144" rx="24" fill="white"/>
<rect x="81" y="48" width="206" height="142" rx="23" stroke="#EBEFF6" stroke-width="2"/>
<path fill-rule="evenodd" clip-rule="evenodd" d="M152.46 96H108.032C107.758 96 107.495 96.1088 107.302 96.3026C107.108 96.4963 106.999 96.7591 106.999 97.0333V141.461C106.999 141.735 107.108 141.998 107.302 142.191C107.495 142.385 107.758 142.494 108.032 142.494H152.46C152.734 142.494 152.997 142.385 153.191 142.191C153.384 141.998 153.493 141.735 153.493 141.461V97.0333C153.493 96.7591 153.384 96.4963 153.191 96.3026C152.997 96.1088 152.734 96 152.46 96ZM137.995 125.963C137.995 126.237 137.886 126.5 137.692 126.693C137.499 126.887 137.236 126.996 136.962 126.996H123.53C123.256 126.996 122.993 126.887 122.8 126.693C122.606 126.5 122.497 126.237 122.497 125.963V112.531C122.497 112.257 122.606 111.994 122.8 111.801C122.993 111.607 123.256 111.498 123.53 111.498H136.962C137.236 111.498 137.499 111.607 137.692 111.801C137.886 111.994 137.995 112.257 137.995 112.531V125.963Z" fill="#000008"/>
<path d="M245.473 111.5H232.042C231.471 111.5 231.009 111.962 231.009 112.533V125.965C231.009 126.535 231.471 126.998 232.042 126.998H245.473C246.044 126.998 246.507 126.535 246.507 125.965V112.533C246.507 111.962 246.044 111.5 245.473 111.5Z" fill="#000008"/>
<path d="M216.537 96.0011H229.969C230.54 96.0011 231.002 96.4636 231.002 97.0344V110.466C231.002 111.036 230.54 111.499 229.969 111.499H216.537C215.967 111.499 215.504 111.036 215.504 110.466V97.0344C215.504 96.4636 215.967 96.0011 216.537 96.0011Z" fill="#000008"/>
<path d="M260.966 96.0011H247.534C246.964 96.0011 246.501 96.4636 246.501 97.0344V110.466C246.501 111.036 246.964 111.499 247.534 111.499H260.966C261.537 111.499 261.999 111.036 261.999 110.466V97.0344C261.999 96.4636 261.537 96.0011 260.966 96.0011Z" fill="#000008"/>
<path d="M216.537 126.997H229.969C230.54 126.997 231.002 127.459 231.002 128.03V141.462C231.002 142.032 230.54 142.495 229.969 142.495H216.537C215.967 142.495 215.504 142.032 215.504 141.462V128.03C215.504 127.459 215.967 126.997 216.537 126.997Z" fill="#000008"/>
<path d="M260.966 126.997H247.534C246.964 126.997 246.501 127.459 246.501 128.03V141.462C246.501 142.032 246.964 142.495 247.534 142.495H260.966C261.537 142.495 261.999 142.032 261.999 141.462V128.03C261.999 127.459 261.537 126.997 260.966 126.997Z" fill="#000008"/>
<path d="M193.272 96.0011H206.703C207.274 96.0011 207.737 96.4636 207.737 97.0344V110.466C207.737 111.036 207.274 111.499 206.703 111.499H193.272C192.701 111.499 192.238 111.036 192.238 110.466V97.0344C192.238 96.4636 192.701 96.0011 193.272 96.0011Z" fill="#000008"/>
<path d="M206.703 126.997H193.272C192.701 126.997 192.238 127.459 192.238 128.03V141.462C192.238 142.032 192.701 142.495 193.272 142.495H206.703C207.274 142.495 207.737 142.032 207.737 141.462V128.03C207.737 127.459 207.274 126.997 206.703 126.997Z" fill="#000008"/>
<path d="M191.935 111.789C192.129 111.983 192.238 112.245 192.238 112.519V125.951C192.238 126.225 192.129 126.488 191.935 126.682C191.742 126.875 191.479 126.984 191.205 126.984H176.74V141.438C176.74 141.712 176.631 141.974 176.437 142.168C176.243 142.362 175.981 142.471 175.707 142.471H162.275C162.001 142.471 161.738 142.362 161.544 142.168C161.351 141.974 161.242 141.712 161.242 141.438V97.0333C161.242 96.7591 161.351 96.4963 161.544 96.3026C161.738 96.1088 162.001 96 162.275 96H175.707C175.981 96 176.243 96.1088 176.437 96.3026C176.631 96.4963 176.74 96.7591 176.74 97.0333V111.486H191.205C191.479 111.486 191.742 111.595 191.935 111.789Z" fill="#000008"/>
</g>
<defs>
<filter id="filter0_ddd_1160_3118" x="0" y="0" width="368" height="304" filterUnits="userSpaceOnUse" color-interpolation-filters="sRGB">
<feFlood flood-opacity="0" result="BackgroundImageFix"/>
<feColorMatrix in="SourceAlpha" type="matrix" values="0 0 0 0 0 0 0 0 0 0 0 0 0 0 0 0 0 0 127 0" result="hardAlpha"/>
<feOffset dy="-1.4146"/>
<feGaussianBlur stdDeviation="12.5295"/>
<feColorMatrix type="matrix" values="0 0 0 0 0.717647 0 0 0 0 0.717647 0 0 0 0 0.717647 0 0 0 0.0282725 0"/>
<feBlend mode="normal" in2="BackgroundImageFix" result="effect1_dropShadow_1160_3118"/>
<feColorMatrix in="SourceAlpha" type="matrix" values="0 0 0 0 0 0 0 0 0 0 0 0 0 0 0 0 0 0 127 0" result="hardAlpha"/>
<feOffset dy="2.02905"/>
<feGaussianBlur stdDeviation="18.7294"/>
<feColorMatrix type="matrix" values="0 0 0 0 0.717647 0 0 0 0 0.717647 0 0 0 0 0.717647 0 0 0 0.0417275 0"/>
<feBlend mode="normal" in2="effect1_dropShadow_1160_3118" result="effect2_dropShadow_1160_3118"/>
<feColorMatrix in="SourceAlpha" type="matrix" values="0 0 0 0 0 0 0 0 0 0 0 0 0 0 0 0 0 0 127 0" result="hardAlpha"/>
<feOffset dy="33"/>
<feGaussianBlur stdDeviation="40"/>
<feColorMatrix type="matrix" values="0 0 0 0 0.717647 0 0 0 0 0.717647 0 0 0 0 0.717647 0 0 0 0.07 0"/>
<feBlend mode="normal" in2="effect2_dropShadow_1160_3118" result="effect3_dropShadow_1160_3118"/>
<feBlend mode="normal" in="SourceGraphic" in2="effect3_dropShadow_1160_3118" result="shape"/>
</filter>
</defs>
</svg>
