<svg width="48" height="48" viewBox="0 0 48 48" fill="none" xmlns="http://www.w3.org/2000/svg">
<path d="M44.585 12.0422V24.0281L34.2028 18.0352L23.8206 12.0141L34.2309 6.04924L44.6131 0.0562744L44.585 12.0422Z" fill="white"/>
<path d="M23.7925 24V35.9859L13.4103 29.9929L3.02814 23.9718L13.4103 18.007L23.7925 12.014V24Z" fill="#A0ECDF"/>
<path d="M3.02814 11.9859V0L13.4103 5.99297L23.7925 11.9859L13.4103 18.007L3.02814 23.9719V11.9859Z" fill="#41D9BF"/>
<path d="M3 35.9579L3.02814 23.9719L13.4103 29.993L23.7925 35.986L13.4103 41.979L3 47.9438V35.9579Z" fill="white"/>
<path d="M34.2028 18.0351L23.8206 12.014V24V35.9859L34.1747 42.007L44.5568 48V36.014L44.585 24.0281L34.2028 18.0351Z" fill="#41D9BF"/>
</svg>
