<svg width="90" height="90" viewBox="0 0 90 90" fill="none" xmlns="http://www.w3.org/2000/svg">
<rect x="5" y="5" width="80" height="80" rx="16" fill="url(#paint0_linear_1157_19500)"/>
<path d="M54.6988 51.9506L64.1866 46.4721C64.6892 46.1818 65 45.6423 65 45.0617V34.1061C65 33.5269 64.6878 32.986 64.1866 32.6957L54.6988 27.2172C54.1962 26.9269 53.5732 26.9283 53.0707 27.2172L43.5828 32.6957C43.0802 32.986 42.7694 33.5269 42.7694 34.1061V53.6855L36.116 57.5264L29.4625 53.6855V46.0024L36.116 42.1616L40.5046 44.6948V39.5408L36.9293 37.4773C36.6829 37.3349 36.4008 37.2596 36.1146 37.2596C35.8284 37.2596 35.5464 37.3349 35.3012 37.4773L25.8134 42.9558C25.3108 43.2461 25 43.7856 25 44.3661V55.3218C25 55.901 25.3122 56.4419 25.8134 56.7322L35.3012 62.2107C35.8024 62.4996 36.4268 62.4996 36.9293 62.2107L46.4172 56.7335C46.9198 56.4433 47.2306 55.9024 47.2306 55.3232V35.7438L47.3511 35.6753L53.884 31.9029L60.5375 35.7438V43.4268L53.884 47.2677L49.5023 44.7372V49.8912L53.0707 51.952C53.5732 52.2409 54.1962 52.2409 54.6988 51.952V51.9506Z" fill="white"/>
<defs>
<linearGradient id="paint0_linear_1157_19500" x1="-9.61992" y1="11.5752" x2="72.9672" y2="62.1145" gradientUnits="userSpaceOnUse">
<stop stop-color="#A229C5"/>
<stop offset="1" stop-color="#7B3FE4"/>
</linearGradient>
</defs>
</svg>
