<svg width="368" height="304" viewBox="0 0 368 304" fill="none" xmlns="http://www.w3.org/2000/svg">
<g filter="url(#filter0_ddd_1157_19303)">
<rect x="80" y="47" width="208" height="144" rx="24" fill="white"/>
<rect x="81" y="48" width="206" height="142" rx="23" stroke="#EBEFF6" stroke-width="2"/>
<path d="M195.449 96.7511L206.161 90.5658C206.729 90.2372 207.08 89.6279 207.08 88.974V76.6034C207.08 75.9494 206.729 75.3401 206.161 75.0116L195.449 68.8263C194.882 68.4977 194.177 68.5009 193.612 68.8263L182.9 75.0116C182.332 75.3401 181.981 75.9494 181.981 76.6034V98.7097L174.469 103.045L166.957 98.7097V90.0362L174.469 85.7011L179.423 88.5625V82.744L175.388 80.4122C175.11 80.2527 174.791 80.1665 174.469 80.1665C174.147 80.1665 173.828 80.2527 173.55 80.4122L162.839 86.5975C162.271 86.926 161.92 87.5353 161.92 88.1892V100.56C161.92 101.214 162.271 101.823 162.839 102.152L173.55 108.337C174.118 108.662 174.82 108.662 175.388 108.337L186.1 102.152C186.667 101.823 187.018 101.214 187.018 100.56V78.4535L187.152 78.377L194.527 74.1184L202.04 78.4535V87.127L194.527 91.4621L189.58 88.6071V94.4256L193.609 96.7511C194.177 97.0764 194.882 97.0764 195.446 96.7511H195.449Z" fill="url(#paint0_linear_1157_19303)"/>
<path d="M158.373 128.581V159.307H163.728V128.581H158.373Z" fill="#22143D"/>
<path fill-rule="evenodd" clip-rule="evenodd" d="M107 168.086V137.097H111.611L112.05 139.598H112.269C113.587 137.885 115.825 136.658 118.942 136.658C124.647 136.658 129.215 141.312 129.215 148.2C129.215 155.089 124.651 159.743 118.942 159.743C115.869 159.743 113.72 158.468 112.579 157.022H112.36V168.082H107.004L107 168.086ZM123.855 148.204C123.855 144.166 121.263 141.621 118.103 141.621C114.943 141.621 112.352 144.166 112.352 148.204C112.352 152.242 114.943 154.787 118.103 154.787C121.263 154.787 123.855 152.242 123.855 148.204Z" fill="#22143D"/>
<path fill-rule="evenodd" clip-rule="evenodd" d="M131.932 148.2C131.932 141.484 136.758 136.658 143.211 136.658C149.665 136.658 154.491 141.484 154.491 148.2C154.491 154.916 149.665 159.743 143.211 159.743C136.758 159.743 131.932 154.869 131.932 148.2ZM149.092 148.2C149.092 144.248 146.458 141.617 143.211 141.617C139.965 141.617 137.287 144.252 137.287 148.2C137.287 152.148 139.965 154.74 143.211 154.74C146.458 154.74 149.092 152.152 149.092 148.2Z" fill="#22143D"/>
<path d="M183.61 137.097H189.315L179.658 164.091C178.693 166.769 177.376 168.086 173.906 168.086H168.727V163.126H173.118C173.91 163.126 174.345 162.73 174.612 162.072L175.137 160.625L166.096 137.097H171.801L177.553 152.505H178.431L183.61 137.097Z" fill="#22143D"/>
<path fill-rule="evenodd" clip-rule="evenodd" d="M195.78 160.405H190.338C190.471 163.608 193.369 168.525 200.873 168.525C207.589 168.525 211.541 164.616 211.541 158.735V137.097H206.887L206.448 139.512H206.228C204.868 137.842 202.715 136.658 199.775 136.658C194.07 136.658 189.679 141.002 189.679 147.322C189.679 153.642 194.07 158.033 199.775 158.033C202.586 158.033 204.782 156.892 205.966 155.618H206.185V158.735C206.185 161.809 204.076 163.828 200.873 163.828C197.446 163.828 195.999 161.852 195.78 160.405ZM200.61 141.445C203.727 141.445 206.185 143.86 206.185 147.326C206.185 150.835 203.684 153.25 200.61 153.25C197.536 153.25 195.078 150.792 195.078 147.326C195.078 143.86 197.493 141.445 200.61 141.445Z" fill="#22143D"/>
<path fill-rule="evenodd" clip-rule="evenodd" d="M215.262 148.2C215.262 141.484 220.088 136.658 226.541 136.658C232.995 136.658 237.821 141.484 237.821 148.2C237.821 154.916 232.995 159.743 226.541 159.743C220.088 159.743 215.262 154.869 215.262 148.2ZM232.422 148.2C232.422 144.248 229.788 141.617 226.541 141.617C223.295 141.617 220.617 144.252 220.617 148.2C220.617 152.148 223.295 154.74 226.541 154.74C229.788 154.74 232.422 152.152 232.422 148.2Z" fill="#22143D"/>
<path d="M241.55 159.304V159.307L241.546 159.304H241.55Z" fill="#22143D"/>
<path d="M241.55 159.304H246.901V146.663C246.901 143.899 249.097 141.747 251.861 141.747C254.625 141.747 256.644 143.809 256.644 146.663V159.304H262V145.961C262 140.343 258.315 136.658 253.222 136.658C249.889 136.658 247.693 138.195 246.815 139.202H246.596L246.157 137.097H241.55V159.304Z" fill="#22143D"/>
</g>
<defs>
<filter id="filter0_ddd_1157_19303" x="0" y="0" width="368" height="304" filterUnits="userSpaceOnUse" color-interpolation-filters="sRGB">
<feFlood flood-opacity="0" result="BackgroundImageFix"/>
<feColorMatrix in="SourceAlpha" type="matrix" values="0 0 0 0 0 0 0 0 0 0 0 0 0 0 0 0 0 0 127 0" result="hardAlpha"/>
<feOffset dy="-1.4146"/>
<feGaussianBlur stdDeviation="12.5295"/>
<feColorMatrix type="matrix" values="0 0 0 0 0.717647 0 0 0 0 0.717647 0 0 0 0 0.717647 0 0 0 0.0282725 0"/>
<feBlend mode="normal" in2="BackgroundImageFix" result="effect1_dropShadow_1157_19303"/>
<feColorMatrix in="SourceAlpha" type="matrix" values="0 0 0 0 0 0 0 0 0 0 0 0 0 0 0 0 0 0 127 0" result="hardAlpha"/>
<feOffset dy="2.02905"/>
<feGaussianBlur stdDeviation="18.7294"/>
<feColorMatrix type="matrix" values="0 0 0 0 0.717647 0 0 0 0 0.717647 0 0 0 0 0.717647 0 0 0 0.0417275 0"/>
<feBlend mode="normal" in2="effect1_dropShadow_1157_19303" result="effect2_dropShadow_1157_19303"/>
<feColorMatrix in="SourceAlpha" type="matrix" values="0 0 0 0 0 0 0 0 0 0 0 0 0 0 0 0 0 0 127 0" result="hardAlpha"/>
<feOffset dy="33"/>
<feGaussianBlur stdDeviation="40"/>
<feColorMatrix type="matrix" values="0 0 0 0 0.717647 0 0 0 0 0.717647 0 0 0 0 0.717647 0 0 0 0.07 0"/>
<feBlend mode="normal" in2="effect2_dropShadow_1157_19303" result="effect3_dropShadow_1157_19303"/>
<feBlend mode="normal" in="SourceGraphic" in2="effect3_dropShadow_1157_19303" result="shape"/>
</filter>
<linearGradient id="paint0_linear_1157_19303" x1="161.773" y1="101.772" x2="205.14" y2="76.6003" gradientUnits="userSpaceOnUse">
<stop stop-color="#A726C1"/>
<stop offset="0.88" stop-color="#803BDF"/>
<stop offset="1" stop-color="#7B3FE4"/>
</linearGradient>
</defs>
</svg>
