<svg width="368" height="304" viewBox="0 0 368 304" fill="none" xmlns="http://www.w3.org/2000/svg">
<g filter="url(#filter0_ddd_1157_19096)">
<rect x="80" y="47" width="208" height="144" rx="24" fill="white"/>
<rect x="81" y="48" width="206" height="142" rx="23" stroke="#EBEFF6" stroke-width="2"/>
<path d="M195.97 78.4014C194.684 79.6878 193.505 81.0822 192.457 82.5689L192.126 82.4611C190.216 81.8371 188.236 81.4519 186.241 81.321C185.64 81.2747 183.398 81.2747 182.666 81.321C180.455 81.4673 178.761 81.7986 176.835 82.4688C176.758 82.4996 176.688 82.5227 176.619 82.5458C175.533 81.0668 174.323 79.6801 172.991 78.4091C179.385 75.1351 186.865 74.7422 193.559 77.3229C194.275 77.5925 194.976 77.9084 195.662 78.2473L195.97 78.4014Z" fill="#F00500"/>
<path d="M207.895 107.62C206.925 110.386 205.469 112.951 203.581 115.185C202.557 116.387 201.424 117.489 200.207 118.49C197.357 120.786 194.029 122.426 190.478 123.289C186.549 124.237 182.451 124.237 178.522 123.289C174.963 122.426 171.643 120.786 168.793 118.49C167.576 117.489 166.443 116.387 165.419 115.185C159.988 108.768 158.339 99.9556 161.105 92.0133C161.629 90.542 162.283 89.1245 163.069 87.7764C163.431 87.1602 163.878 86.4669 164.094 86.1818C164.833 89.3633 165.742 92.1597 166.081 93.1688C166.058 93.2228 166.027 93.2844 165.996 93.3383C164.202 96.9743 163.231 100.479 163 104.208C163 104.254 162.992 104.308 162.992 104.354C162.93 105.471 162.961 106.003 163.146 106.704C163.724 108.899 165.503 111.318 168.292 113.691C172.86 117.573 179.054 120.377 183.745 120.701C188.637 121.032 195.855 118.174 200.662 113.999C201.417 113.329 202.125 112.62 202.788 111.865C203.266 111.31 203.974 110.355 203.92 110.355C203.905 110.355 203.92 110.34 203.951 110.324C203.974 110.309 203.997 110.286 203.982 110.27C203.974 110.263 203.99 110.24 204.013 110.232C204.036 110.224 204.051 110.209 204.044 110.193C204.036 110.178 204.044 110.163 204.074 110.155C204.098 110.147 204.105 110.124 204.098 110.109C204.09 110.093 204.098 110.078 204.113 110.078C204.128 110.078 204.144 110.055 204.144 110.039C204.144 110.024 204.159 110.001 204.175 110.001C204.19 110.001 204.205 109.985 204.205 109.97C204.229 109.908 204.267 109.847 204.306 109.793C204.421 109.616 204.883 108.791 204.945 108.653C205.384 107.659 205.661 106.773 205.792 105.887C205.854 105.464 205.892 104.685 205.862 104.501C205.854 104.47 205.854 104.416 205.846 104.331C205.831 104.177 205.823 103.946 205.808 103.715C205.792 103.368 205.762 102.883 205.738 102.644C205.407 99.1467 204.514 96.2887 202.819 93.2613C202.749 93.1457 202.688 93.0302 202.649 92.9377C202.634 92.9146 202.626 92.8915 202.619 92.8761C202.857 92.1597 203.836 89.1631 204.614 85.735L204.629 85.7504L204.745 85.9045C204.945 86.1741 205.476 86.9753 205.715 87.3604C206.801 89.1322 207.649 91.035 208.25 93.0225C209.644 97.8063 209.528 102.906 207.895 107.62Z" fill="#F00500"/>
<path d="M197.896 98.4149C197.873 98.5382 197.511 98.908 197.149 99.1776C196.086 99.9556 194.183 100.68 192.25 101.026C191.148 101.227 190.047 101.258 189.715 101.096C189.5 100.988 189.469 100.903 189.546 100.626C189.708 100.048 190.231 99.4164 191.048 98.8232C191.464 98.5228 193.151 97.4982 193.937 97.0668C195.231 96.3581 196.279 95.9344 196.987 95.8343C197.211 95.8035 197.48 95.7958 197.565 95.8343C197.704 95.8882 197.858 96.2965 197.919 96.7895C197.95 97.0514 197.935 98.2069 197.896 98.4149Z" fill="#000008"/>
<path d="M179.747 100.965C179.701 101.057 179.47 101.157 179.208 101.196C178.946 101.234 178.145 101.211 177.69 101.157C176.057 100.942 174.324 100.441 173.061 99.8246C172.352 99.4779 171.844 99.1313 171.466 98.7538L171.25 98.5304L171.227 98.2377C171.189 97.7292 171.196 96.9281 171.258 96.6431C171.297 96.4043 171.381 96.1732 171.497 95.9652C171.558 95.8881 171.558 95.8881 171.836 95.8881C172.175 95.8881 172.46 95.9421 172.922 96.0884C173.87 96.3812 175.279 97.0899 176.997 98.1221C178.415 98.9695 178.946 99.3855 179.354 99.9555C179.632 100.31 179.817 100.811 179.747 100.965Z" fill="#000008"/>
<path d="M190.654 111.688C190.654 111.711 190.562 112.081 190.447 112.52C190.331 112.959 190.239 113.313 190.239 113.329C190.154 113.336 190.077 113.344 189.992 113.336H189.745L189.407 114.138C189.222 114.577 189.052 114.985 189.029 115.047L188.983 115.154L188.659 114.631V112.497L188.598 112.512C188.467 112.543 187.535 112.666 187.126 112.705C185.439 112.874 183.745 112.836 182.065 112.597C181.796 112.558 181.564 112.528 181.557 112.535C181.549 112.543 181.557 113.036 181.572 113.645L181.595 114.738L181.464 114.939C181.395 115.047 181.326 115.139 181.326 115.147C181.303 115.17 181.226 115.047 181.048 114.692C180.856 114.322 180.717 113.93 180.617 113.521L180.563 113.298L180.324 113.313L180.085 113.336L180.024 113.051C179.993 112.897 179.954 112.658 179.939 112.528L179.916 112.281L179.716 112.104C179.6 112.004 179.485 111.904 179.461 111.888C179.423 111.857 179.407 111.803 179.407 111.757V111.665L181.333 111.68L181.395 111.88L181.726 111.896C181.911 111.904 182.497 111.919 183.02 111.934L183.983 111.957L184.23 111.572L184.484 111.187H184.808L184.792 109.585L184.368 109.4C183.005 108.799 182.204 108.113 181.903 107.281C181.842 107.112 181.842 107.05 181.826 106.28C181.819 105.517 181.819 105.448 181.873 105.279C181.98 104.893 182.281 104.593 182.666 104.493C182.797 104.454 183.144 104.454 184.962 104.454L187.103 104.462L187.342 104.578C187.627 104.716 187.758 104.816 187.92 105.032C188.105 105.279 188.159 105.471 188.159 105.941C188.159 106.611 188.112 107.189 188.043 107.42C187.943 107.736 187.789 108.036 187.596 108.306C187.211 108.799 186.51 109.292 185.871 109.515L185.686 109.585L185.701 111.203L186.04 111.233L186.271 111.58L186.495 111.927H187.527C188.097 111.927 188.598 111.934 188.644 111.942C188.721 111.957 188.736 111.95 188.813 111.819L188.906 111.68H189.792C190.454 111.649 190.654 111.665 190.654 111.688Z" fill="#000008"/>
<path d="M186.587 113.899C186.441 113.984 186.341 114.022 186.318 114.007C186.295 113.999 186.187 113.907 186.071 113.822L185.863 113.652L185.648 113.883C185.178 114.392 185.162 114.415 185.024 114.423C184.808 114.446 184.762 114.407 184.5 114.014C184.361 113.814 184.253 113.645 184.253 113.645C184.253 113.645 184.153 113.629 184.038 113.622L183.822 113.598L183.622 114.014L183.444 113.961C183.306 113.914 183.167 113.86 183.036 113.799L182.805 113.683V113.244L186.903 113.259L186.911 113.467C186.919 113.714 186.926 113.706 186.587 113.899Z" fill="#000008"/>
<path d="M205.847 104.501C205.839 104.47 205.839 104.416 205.831 104.331C203.983 104.131 198.706 104.008 193.806 108.052C193.806 108.052 192.227 100.811 184.832 100.811C177.437 100.811 174.694 108.052 174.694 108.052C170.55 103.592 165.003 103.915 163 104.208C163 104.254 162.992 104.308 162.992 104.354C162.93 105.471 162.961 106.003 163.146 106.704C163.724 108.899 165.503 111.318 168.292 113.691C172.86 117.573 179.054 120.377 183.745 120.701C188.637 121.032 195.855 118.174 200.662 113.999C201.417 113.329 202.125 112.62 202.788 111.865C203.266 111.31 203.974 110.355 203.92 110.355C203.905 110.355 203.92 110.34 203.951 110.324C203.974 110.309 203.997 110.286 203.982 110.27C203.974 110.263 203.99 110.24 204.013 110.232C204.036 110.224 204.051 110.209 204.044 110.193C204.036 110.178 204.044 110.163 204.074 110.155C204.098 110.147 204.105 110.124 204.098 110.109C204.09 110.093 204.098 110.078 204.113 110.078C204.128 110.078 204.144 110.055 204.144 110.039C204.144 110.024 204.159 110.001 204.175 110.001C204.19 110.001 204.205 109.985 204.205 109.97C204.229 109.908 204.267 109.847 204.306 109.793C204.421 109.616 204.883 108.791 204.945 108.653C205.384 107.659 205.661 106.773 205.792 105.887C205.839 105.464 205.878 104.686 205.847 104.501ZM186.587 113.899C186.441 113.984 186.341 114.022 186.318 114.007C186.295 113.999 186.187 113.907 186.071 113.822L185.863 113.652L185.648 113.883C185.178 114.392 185.162 114.415 185.024 114.423C184.808 114.446 184.762 114.407 184.5 114.014C184.361 113.814 184.253 113.645 184.253 113.645C184.253 113.645 184.153 113.629 184.038 113.622L183.822 113.598L183.622 114.014L183.444 113.961C183.306 113.914 183.167 113.86 183.036 113.799L182.805 113.683V113.244L186.903 113.259L186.911 113.467C186.919 113.714 186.926 113.706 186.587 113.899ZM190.44 112.512C190.324 112.951 190.232 113.306 190.232 113.321C190.147 113.329 190.07 113.337 189.985 113.329H189.739L189.408 114.138C189.223 114.577 189.053 114.985 189.03 115.047L188.984 115.155L188.66 114.631V112.497L188.599 112.512C188.468 112.543 187.536 112.666 187.127 112.705C185.44 112.874 183.746 112.836 182.066 112.597C181.797 112.559 181.566 112.528 181.558 112.535C181.55 112.543 181.558 113.036 181.573 113.645L181.596 114.739L181.465 114.939C181.396 115.047 181.327 115.139 181.327 115.147C181.304 115.17 181.227 115.047 181.049 114.692C180.857 114.323 180.718 113.93 180.618 113.521L180.564 113.298L180.325 113.313L180.087 113.337L180.025 113.052C179.994 112.897 179.956 112.659 179.94 112.528L179.917 112.281L179.717 112.104C179.601 112.004 179.486 111.904 179.463 111.888C179.424 111.858 179.409 111.804 179.409 111.757V111.665L181.334 111.68L181.396 111.881L181.727 111.896C181.912 111.904 182.498 111.919 183.022 111.935L183.984 111.958L184.231 111.572L184.485 111.187H184.809L184.793 109.585L184.37 109.4C183.006 108.799 182.205 108.114 181.905 107.282C181.843 107.112 181.843 107.051 181.827 106.28C181.82 105.518 181.82 105.448 181.874 105.279C181.982 104.894 182.282 104.593 182.667 104.493C182.798 104.455 183.145 104.455 184.963 104.455L187.104 104.462L187.343 104.578C187.628 104.716 187.759 104.817 187.921 105.032C188.106 105.279 188.16 105.471 188.16 105.941C188.16 106.611 188.113 107.189 188.044 107.42C187.944 107.736 187.79 108.037 187.597 108.306C187.212 108.799 186.511 109.292 185.872 109.516L185.687 109.585L185.702 111.203L186.041 111.234L186.272 111.58L186.496 111.927H187.528C188.098 111.927 188.599 111.935 188.645 111.942C188.722 111.958 188.737 111.95 188.814 111.819L188.907 111.68H189.793C190.478 111.68 190.679 111.688 190.679 111.711C190.656 111.703 190.555 112.081 190.44 112.512Z" fill="white"/>
<path d="M205.784 103.715C205.768 103.368 205.737 102.883 205.714 102.644C205.383 99.1469 204.489 96.2889 202.795 93.2615C202.725 93.1459 202.664 93.0303 202.625 92.9379C202.61 92.9148 202.602 92.8917 202.594 92.8763C202.833 92.1599 203.812 89.1632 204.59 85.7352C205.645 81.0823 206.315 75.6437 204.266 74.0106C204.266 74.0106 200.722 73.7487 195.977 78.4015C194.691 79.688 193.512 81.0823 192.464 82.5691L192.133 82.4612C190.223 81.8373 188.243 81.4521 186.248 81.3211C185.647 81.2749 183.405 81.2749 182.673 81.3211C180.462 81.4675 178.768 81.7987 176.842 82.4689C176.765 82.4998 176.695 82.5229 176.626 82.546C175.54 81.0669 174.331 79.6803 172.998 78.4092C168.06 73.7333 164.385 74.0029 164.385 74.0029C162.213 75.6899 162.953 81.3751 164.077 86.182C164.817 89.3635 165.726 92.1599 166.065 93.169C166.042 93.2229 166.011 93.2846 165.98 93.3385C164.185 96.9745 163.215 100.479 162.984 104.208C164.994 103.915 170.533 103.584 174.685 108.052C174.685 108.052 177.427 100.811 184.823 100.811C192.218 100.811 193.797 108.052 193.797 108.052C198.696 104.008 203.973 104.139 205.822 104.331C205.814 104.177 205.799 103.946 205.784 103.715ZM167.521 90.2648C167.521 90.2648 164.64 83.0621 165.379 78.9485C165.502 78.2552 165.734 77.6466 166.096 77.1844C166.096 77.1844 169.362 77.5079 174.631 83.3625C174.631 83.3625 173.63 83.8479 172.289 84.8801C172.289 84.8801 172.281 84.8878 172.274 84.8878C170.818 86.0048 168.954 87.7766 167.521 90.2648ZM179.746 100.965C179.7 101.057 179.469 101.157 179.207 101.196C178.945 101.234 178.144 101.211 177.689 101.157C176.056 100.942 174.323 100.441 173.059 99.8248C172.351 99.4781 171.842 99.1315 171.465 98.754L171.249 98.5306L171.226 98.2379C171.188 97.7294 171.195 96.9283 171.257 96.6433C171.295 96.4045 171.38 96.1733 171.496 95.9654C171.557 95.8883 171.557 95.8883 171.835 95.8883C172.174 95.8883 172.459 95.9422 172.921 96.0886C173.868 96.3813 175.278 97.0901 176.996 98.1223C178.413 98.9697 178.945 99.3857 179.353 99.9557C179.63 100.31 179.815 100.811 179.746 100.965ZM197.895 98.415C197.872 98.5383 197.51 98.9081 197.148 99.1777C196.085 99.9557 194.182 100.68 192.249 101.027C191.147 101.227 190.046 101.258 189.714 101.096C189.499 100.988 189.468 100.903 189.545 100.626C189.707 100.048 190.23 99.4165 191.047 98.8233C191.463 98.5229 193.15 97.4983 193.936 97.0669C195.23 96.3582 196.278 95.9345 196.986 95.8344C197.21 95.8036 197.479 95.7959 197.564 95.8344C197.703 95.8883 197.857 96.2966 197.918 96.7896C197.949 97.0515 197.934 98.2071 197.895 98.415ZM196.617 84.8801L196.601 84.8724C195.307 83.8402 194.336 83.3548 194.336 83.3548C199.428 77.5002 202.579 77.1767 202.579 77.1767C202.926 77.6466 203.149 78.2475 203.272 78.9408C203.989 83.0544 201.208 90.2648 201.208 90.2648C200.045 88.1926 198.481 86.3592 196.617 84.8801Z" fill="#FFA409"/>
<path d="M203.279 78.9407C202.678 78.8637 199.837 78.8483 196.617 84.8801L196.601 84.8724C195.307 83.8402 194.336 83.3548 194.336 83.3548C199.428 77.5002 202.579 77.1767 202.579 77.1767C202.933 77.6466 203.156 78.2474 203.279 78.9407Z" fill="#FF9300"/>
<path d="M201.217 90.2647C200.046 88.1847 198.49 86.359 196.618 84.88C199.838 78.8482 202.672 78.8636 203.281 78.9406C203.997 83.062 201.217 90.2647 201.217 90.2647Z" fill="#FF8300"/>
<path d="M203.396 78.9638C203.357 78.9561 203.32 78.9483 203.281 78.9406L203.396 78.9638Z" fill="#FF8300"/>
<path d="M174.633 83.3548C174.633 83.3548 173.631 83.8401 172.291 84.8724C172.291 84.8724 172.283 84.8801 172.275 84.8801C168.94 78.8406 166.005 78.8637 165.373 78.9407C165.496 78.2474 165.727 77.6388 166.089 77.1766C166.097 77.1766 169.363 77.5002 174.633 83.3548Z" fill="#FF9300"/>
<path d="M172.282 84.88C170.818 86.0047 168.954 87.7689 167.521 90.2648C167.521 90.2648 164.64 83.062 165.379 78.9406C166.003 78.8636 168.946 78.8482 172.282 84.88Z" fill="#FF8300"/>
<path d="M165.379 78.9406C165.341 78.9483 165.295 78.9561 165.256 78.9638L165.379 78.9406Z" fill="#FF8300"/>
<path d="M193.421 94.2629C193.421 94.2629 190.956 94.417 191.264 92.4912C191.572 90.5653 193.498 90.3342 194.037 90.4112C194.577 90.4883 196.734 91.2586 196.348 92.8763C195.963 94.4941 195.424 94.1859 195.116 94.2629C194.808 94.34 193.421 94.2629 193.421 94.2629Z" fill="white"/>
<path d="M175.24 94.2629C175.24 94.2629 172.775 94.417 173.083 92.4912C173.391 90.5653 175.317 90.3342 175.856 90.4112C176.396 90.4883 178.553 91.2586 178.167 92.8763C177.782 94.4941 177.243 94.1859 176.935 94.2629C176.627 94.34 175.24 94.2629 175.24 94.2629Z" fill="white"/>
<path fill-rule="evenodd" clip-rule="evenodd" d="M208.336 153.813C208.336 156.979 207.55 159.414 205.979 161.117C204.408 162.82 202.157 163.667 199.227 163.658C196.308 163.658 194.062 162.811 192.489 161.117C190.917 159.423 190.135 156.984 190.144 153.8C190.144 150.62 190.93 148.181 192.496 146.511C194.079 144.84 196.335 144.003 199.263 143.999C202.208 143.999 204.446 144.841 206.001 146.54C207.553 148.224 208.331 150.648 208.336 153.813ZM194.392 153.813C194.392 158.097 196.018 160.261 199.227 160.261C202.464 160.261 204.081 158.112 204.077 153.813C204.073 149.515 202.466 147.366 199.256 147.366C196.052 147.366 194.397 149.559 194.397 153.813H194.392Z" fill="#000008"/>
<path d="M119.443 158.096C119.443 159.825 118.818 161.175 117.584 162.177C116.35 163.165 114.622 163.658 112.401 163.658C110.368 163.658 108.571 163.28 107 162.511V158.75C108.292 159.316 109.382 159.723 110.268 159.97C111.068 160.19 111.893 160.307 112.723 160.319C114.508 160.319 115.481 159.621 115.481 158.286C115.489 157.926 115.377 157.573 115.162 157.283C114.901 156.953 114.586 156.669 114.232 156.442C113.839 156.166 113.012 155.745 111.764 155.149C110.586 154.597 109.717 154.075 109.136 153.567C107.974 152.564 107.219 151.244 107.219 149.457C107.219 147.759 107.786 146.437 108.932 145.464C110.079 144.491 111.662 144.013 113.681 144.013C115.669 144.013 117.383 144.504 119.358 145.363L118.051 148.514C117.232 148.16 116.387 147.868 115.524 147.642C114.878 147.483 114.215 147.4 113.549 147.395C112.026 147.395 111.183 148.165 111.183 149.327C111.179 149.658 111.264 149.984 111.429 150.271C111.635 150.579 111.902 150.841 112.215 151.04C112.578 151.287 113.435 151.728 114.785 152.361C116.571 153.218 117.79 154.089 118.444 154.945C119.098 155.802 119.443 156.848 119.443 158.096Z" fill="#000008"/>
<path d="M138.568 163.397H134.533V155.149H126.967V163.397H122.916V144.289H126.967V151.781H134.533V144.289H138.568V163.397Z" fill="#000008"/>
<path d="M143.388 144.289V163.397H147.44V144.289H143.388Z" fill="#000008"/>
<path fill-rule="evenodd" clip-rule="evenodd" d="M152.245 144.289H158.184C160.899 144.289 162.859 144.682 164.076 145.45C165.292 146.219 165.919 147.453 165.919 149.124C165.919 151.403 164.757 152.953 162.973 153.262V153.392C165.397 153.929 166.399 155.411 166.399 157.85C166.399 159.592 165.775 160.957 164.512 161.93C163.248 162.903 161.55 163.397 159.386 163.397H152.242L152.245 144.289ZM156.296 151.85H158.652C160.845 151.85 161.774 151.225 161.774 149.657C161.774 148.205 160.743 147.61 158.42 147.61H156.3L156.296 151.85ZM156.296 155.072V160.054H158.924C161.175 160.054 162.191 159.196 162.191 157.454C162.191 155.872 161.059 155.072 158.794 155.072H156.296Z" fill="#000008"/>
<path d="M179.355 163.397H183.405V147.657H188.589V144.289H174.171V147.657H179.355V163.397Z" fill="#000008"/>
<path d="M223.059 163.397H227.661L220.941 152.752L227.605 144.287H223.119L217.935 150.791L216.352 153.028V144.289H212.301V163.397H216.352V156.573L218.051 155.352L223.059 163.397Z" fill="#000008"/>
<path d="M241.062 163.397H230.07V144.289H241.062V147.614H234.122V151.809H240.583V155.12H234.122V160.058H241.062V163.397Z" fill="#000008"/>
<path d="M256.846 163.397H262V144.289H258.356V153.334C258.356 154.365 258.414 156.122 258.545 158.605H258.457L250.152 144.289H245.055V163.397H248.67V154.409C248.67 153.32 248.584 151.49 248.424 148.949H248.54L256.846 163.397Z" fill="#000008"/>
</g>
<defs>
<filter id="filter0_ddd_1157_19096" x="0" y="0" width="368" height="304" filterUnits="userSpaceOnUse" color-interpolation-filters="sRGB">
<feFlood flood-opacity="0" result="BackgroundImageFix"/>
<feColorMatrix in="SourceAlpha" type="matrix" values="0 0 0 0 0 0 0 0 0 0 0 0 0 0 0 0 0 0 127 0" result="hardAlpha"/>
<feOffset dy="-1.4146"/>
<feGaussianBlur stdDeviation="12.5295"/>
<feColorMatrix type="matrix" values="0 0 0 0 0.717647 0 0 0 0 0.717647 0 0 0 0 0.717647 0 0 0 0.0282725 0"/>
<feBlend mode="normal" in2="BackgroundImageFix" result="effect1_dropShadow_1157_19096"/>
<feColorMatrix in="SourceAlpha" type="matrix" values="0 0 0 0 0 0 0 0 0 0 0 0 0 0 0 0 0 0 127 0" result="hardAlpha"/>
<feOffset dy="2.02905"/>
<feGaussianBlur stdDeviation="18.7294"/>
<feColorMatrix type="matrix" values="0 0 0 0 0.717647 0 0 0 0 0.717647 0 0 0 0 0.717647 0 0 0 0.0417275 0"/>
<feBlend mode="normal" in2="effect1_dropShadow_1157_19096" result="effect2_dropShadow_1157_19096"/>
<feColorMatrix in="SourceAlpha" type="matrix" values="0 0 0 0 0 0 0 0 0 0 0 0 0 0 0 0 0 0 127 0" result="hardAlpha"/>
<feOffset dy="33"/>
<feGaussianBlur stdDeviation="40"/>
<feColorMatrix type="matrix" values="0 0 0 0 0.717647 0 0 0 0 0.717647 0 0 0 0 0.717647 0 0 0 0.07 0"/>
<feBlend mode="normal" in2="effect2_dropShadow_1157_19096" result="effect3_dropShadow_1157_19096"/>
<feBlend mode="normal" in="SourceGraphic" in2="effect3_dropShadow_1157_19096" result="shape"/>
</filter>
</defs>
</svg>
