<svg width="90" height="90" viewBox="0 0 90 90" fill="none" xmlns="http://www.w3.org/2000/svg">
<rect x="5" y="5" width="80" height="80" rx="16" fill="#F00500"/>
<path d="M56.0318 24.3991C54.7452 25.6856 53.5664 27.0801 52.5187 28.567L52.1874 28.4591C50.2767 27.8351 48.2968 27.4499 46.3014 27.3189C45.7004 27.2727 43.4585 27.2727 42.7266 27.3189C40.5155 27.4653 38.8206 27.7966 36.8945 28.4668C36.8175 28.4977 36.7482 28.5208 36.6788 28.5439C35.5925 27.0647 34.383 25.6779 33.0501 24.4068C39.4446 21.1325 46.9254 20.7396 53.6204 23.3205C54.3368 23.5901 55.0379 23.906 55.7236 24.245L56.0318 24.3991Z" fill="#F00500"/>
<path d="M67.9578 53.6209C66.9871 56.3867 65.531 58.9522 63.6435 61.1864C62.6188 62.3883 61.4863 63.49 60.269 64.4915C57.4185 66.7873 54.0903 68.4283 50.5386 69.2912C46.6095 70.2388 42.5109 70.2388 38.5817 69.2912C35.0224 68.4283 31.7019 66.7873 28.8513 64.4915C27.6341 63.49 26.5015 62.3883 25.4769 61.1864C20.0454 54.7689 18.3967 45.9553 21.1625 38.0123C21.6864 36.5408 22.3413 35.1232 23.1271 33.775C23.4892 33.1587 23.936 32.4653 24.1518 32.1803C24.8914 35.3621 25.8004 38.1587 26.1394 39.1679C26.1163 39.2219 26.0855 39.2835 26.0547 39.3374C24.2596 42.9738 23.2889 46.4792 23.0578 50.208C23.0578 50.2542 23.05 50.3081 23.05 50.3544C22.9884 51.4715 23.0192 52.0031 23.2041 52.7041C23.7819 54.8998 25.5616 57.3189 28.3505 59.6918C32.9191 63.5747 39.1133 66.379 43.8052 66.7026C48.6973 67.0339 55.9162 64.1756 60.7236 60C61.4786 59.3297 62.1874 58.6209 62.8499 57.8659C63.3276 57.3112 64.0364 56.3559 63.9825 56.3559C63.9671 56.3559 63.9825 56.3405 64.0133 56.3251C64.0364 56.3097 64.0595 56.2866 64.0441 56.2712C64.0364 56.2635 64.0518 56.2403 64.0749 56.2326C64.098 56.2249 64.1134 56.2095 64.1057 56.1941C64.098 56.1787 64.1057 56.1633 64.1366 56.1556C64.1597 56.1479 64.1674 56.1248 64.1597 56.1094C64.152 56.094 64.1597 56.0786 64.1751 56.0786C64.1905 56.0786 64.2059 56.0554 64.2059 56.04C64.2059 56.0246 64.2213 56.0015 64.2367 56.0015C64.2521 56.0015 64.2675 55.9861 64.2675 55.9707C64.2906 55.9091 64.3292 55.8474 64.3677 55.7935C64.4832 55.6163 64.9455 54.792 65.0071 54.6533C65.4463 53.6595 65.7236 52.7735 65.8546 51.8875C65.9162 51.4638 65.9547 50.6856 65.9239 50.5007C65.9162 50.4699 65.9162 50.416 65.9085 50.3313C65.8931 50.1772 65.8854 49.946 65.87 49.7149C65.8546 49.3682 65.8238 48.8829 65.8007 48.644C65.4694 45.1464 64.5757 42.2881 62.8808 39.2604C62.8114 39.1448 62.7498 39.0293 62.7113 38.9368C62.6959 38.9137 62.6882 38.8906 62.6805 38.8752C62.9193 38.1587 63.8977 35.1618 64.6758 31.7334L64.6913 31.7488L64.8068 31.9029C65.0071 32.1726 65.5387 32.9738 65.7775 33.359C66.8638 35.1309 67.7113 37.0339 68.3122 39.0215C69.7067 43.8058 69.5911 48.906 67.9578 53.6209Z" fill="#F00500"/>
<path d="M57.9578 44.4145C57.9347 44.5377 57.5726 44.9075 57.2105 45.1772C56.1473 45.9553 54.2444 46.6795 52.3106 47.0262C51.2089 47.2265 50.1072 47.2573 49.7759 47.0955C49.5602 46.9876 49.5294 46.9029 49.6064 46.6256C49.7682 46.0477 50.2921 45.416 51.1088 44.8228C51.5248 44.5223 53.212 43.4977 53.9978 43.0662C55.2921 42.3575 56.3399 41.9337 57.0487 41.8336C57.2721 41.8027 57.5418 41.795 57.6265 41.8336C57.7652 41.8875 57.9193 42.2958 57.9809 42.7889C58.0117 43.0508 57.9963 44.2064 57.9578 44.4145Z" fill="#000008"/>
<path d="M39.8067 46.9645C39.7605 47.057 39.5293 47.1571 39.2674 47.1957C39.0054 47.2342 38.2042 47.2111 37.7497 47.1571C36.1164 46.9414 34.3829 46.4407 33.1194 45.8243C32.4107 45.4776 31.9022 45.1309 31.5247 44.7534L31.309 44.53L31.2858 44.2373C31.2473 43.7288 31.255 42.9276 31.3167 42.6425C31.3552 42.4037 31.4399 42.1726 31.5555 41.9645C31.6171 41.8875 31.6171 41.8875 31.8945 41.8875C32.2335 41.8875 32.5185 41.9414 32.9808 42.0878C33.9284 42.3806 35.3382 43.0893 37.0563 44.1217C38.4739 44.9692 39.0054 45.3852 39.4138 45.9553C39.6911 46.3097 39.876 46.8105 39.8067 46.9645Z" fill="#000008"/>
<path d="M50.7156 57.6888C50.7156 57.7119 50.6231 58.0817 50.5075 58.5208C50.392 58.9599 50.2995 59.3143 50.2995 59.3297C50.2148 59.3374 50.1377 59.3451 50.053 59.3374H49.8065L49.4675 60.1387C49.2826 60.5778 49.1131 60.9861 49.09 61.0478L49.0437 61.1556L48.7202 60.6317V58.4977L48.6585 58.5131C48.5276 58.5439 47.5954 58.6672 47.187 58.7057C45.4998 58.8752 43.8049 58.8367 42.1254 58.5978C41.8557 58.5593 41.6246 58.5285 41.6169 58.5362C41.6092 58.5439 41.6169 59.037 41.6323 59.6456L41.6554 60.7396L41.5244 60.9399C41.4551 61.0478 41.3858 61.1402 41.3858 61.1479C41.3627 61.171 41.2856 61.0478 41.1084 60.6934C40.9158 60.3236 40.7771 59.9307 40.677 59.5223L40.623 59.2989L40.3842 59.3143L40.1454 59.3374L40.0838 59.0524C40.0529 58.8983 40.0144 58.6595 39.999 58.5285L39.9759 58.282L39.7756 58.1048C39.66 58.0046 39.5445 57.9045 39.5214 57.8891C39.4828 57.8582 39.4674 57.8043 39.4674 57.7581V57.6656L41.3935 57.681L41.4551 57.8814L41.7864 57.8968C41.9713 57.9045 42.5568 57.9199 43.0807 57.9353L44.0437 57.9584L44.2903 57.5732L44.5445 57.188H44.8681L44.8527 55.5855L44.4289 55.4006C43.0653 54.7997 42.264 54.114 41.9636 53.282C41.9019 53.1125 41.9019 53.0508 41.8865 52.2804C41.8788 51.5177 41.8788 51.4484 41.9328 51.2789C42.0406 50.8937 42.3411 50.5932 42.7263 50.4931C42.8573 50.4545 43.204 50.4545 45.0222 50.4545L47.1639 50.4623L47.4027 50.5778C47.6878 50.7165 47.8188 50.8166 47.9806 51.0324C48.1655 51.2789 48.2194 51.4715 48.2194 51.9414C48.2194 52.6117 48.1732 53.1895 48.1038 53.4206C48.0037 53.7365 47.8496 54.037 47.657 54.3066C47.2718 54.7997 46.5707 55.2928 45.9312 55.5162L45.7463 55.5855L45.7618 57.2034L46.1007 57.2342L46.3319 57.5809L46.5553 57.9276H47.5877C48.1578 57.9276 48.6585 57.9353 48.7048 57.943C48.7818 57.9584 48.7972 57.9507 48.8743 57.8197L48.9667 57.681H49.8527C50.5152 57.6502 50.7156 57.6656 50.7156 57.6888Z" fill="#000008"/>
<path d="M46.648 59.8998C46.5016 59.9846 46.4015 60.0231 46.3784 60.0077C46.3553 60 46.2474 59.9075 46.1318 59.8228L45.9238 59.6533L45.7081 59.8844C45.2381 60.3929 45.2227 60.416 45.0841 60.4237C44.8683 60.4468 44.8221 60.4083 44.5602 60.0154C44.4215 59.8151 44.3136 59.6456 44.3136 59.6456C44.3136 59.6456 44.2135 59.6302 44.0979 59.6225L43.8822 59.5994L43.6819 60.0154L43.5047 59.9615C43.366 59.9152 43.2274 59.8613 43.0964 59.7997L42.8653 59.6841V59.245L46.9639 59.2604L46.9716 59.4684C46.9793 59.7149 46.987 59.7072 46.648 59.8998Z" fill="#000008"/>
<path d="M65.9083 50.5007C65.9006 50.4699 65.9006 50.416 65.8929 50.3312C64.0439 50.1309 58.7665 50.0077 53.8666 54.0524C53.8666 54.0524 52.2873 46.8104 44.8912 46.8104C37.4952 46.8104 34.7525 54.0524 34.7525 54.0524C30.6077 49.5916 25.0608 49.9152 23.0578 50.208C23.0578 50.2542 23.05 50.3081 23.05 50.3544C22.9884 51.4715 23.0192 52.0031 23.2041 52.7041C23.7819 54.8998 25.5616 57.3189 28.3505 59.6918C32.9191 63.5747 39.1133 66.379 43.8052 66.7026C48.6973 67.0339 55.9162 64.1756 60.7236 60C61.4786 59.3297 62.1874 58.6209 62.8499 57.8659C63.3276 57.3112 64.0364 56.3559 63.9825 56.3559C63.9671 56.3559 63.9825 56.3405 64.0133 56.3251C64.0364 56.3097 64.0595 56.2866 64.0441 56.2712C64.0364 56.2635 64.0518 56.2403 64.0749 56.2326C64.098 56.2249 64.1134 56.2095 64.1057 56.1941C64.098 56.1787 64.1057 56.1633 64.1366 56.1556C64.1597 56.1479 64.1674 56.1248 64.1597 56.1094C64.152 56.094 64.1597 56.0786 64.1751 56.0786C64.1905 56.0786 64.2059 56.0554 64.2059 56.04C64.2059 56.0246 64.2213 56.0015 64.2367 56.0015C64.2521 56.0015 64.2675 55.9861 64.2675 55.9707C64.2906 55.9091 64.3292 55.8474 64.3677 55.7935C64.4832 55.6163 64.9455 54.792 65.0071 54.6533C65.4463 53.6595 65.7236 52.7735 65.8546 51.8875C65.9008 51.4638 65.9391 50.6856 65.9083 50.5007ZM46.648 59.8998C46.5016 59.9846 46.4015 60.0231 46.3784 60.0077C46.3553 60 46.2474 59.9075 46.1318 59.8228L45.9238 59.6533L45.7081 59.8844C45.2381 60.3929 45.2227 60.416 45.0841 60.4237C44.8683 60.4468 44.8221 60.4083 44.5602 60.0154C44.4215 59.8151 44.3136 59.6456 44.3136 59.6456C44.3136 59.6456 44.2135 59.6302 44.0979 59.6225L43.8822 59.5994L43.6819 60.0154L43.5047 59.9615C43.366 59.9152 43.2274 59.8613 43.0964 59.7997L42.8653 59.6841V59.245L46.9639 59.2604L46.9716 59.4684C46.9793 59.7149 46.987 59.7072 46.648 59.8998ZM50.4999 58.5131C50.3843 58.9522 50.2919 59.3066 50.2919 59.322C50.2071 59.3297 50.1301 59.3374 50.0454 59.3297H49.7988L49.4675 60.1387C49.2826 60.5778 49.1131 60.9861 49.09 61.0478L49.0437 61.1556L48.7202 60.6317V58.4977L48.6585 58.5131C48.5276 58.5439 47.5954 58.6672 47.187 58.7057C45.4998 58.8752 43.8049 58.8367 42.1254 58.5978C41.8557 58.5593 41.6246 58.5285 41.6169 58.5362C41.6092 58.5439 41.6169 59.037 41.6323 59.6456L41.6554 60.7396L41.5244 60.9399C41.4551 61.0478 41.3858 61.1402 41.3858 61.1479C41.3627 61.171 41.2856 61.0478 41.1084 60.6934C40.9158 60.3236 40.7771 59.9307 40.677 59.5223L40.623 59.2989L40.3842 59.3143L40.1454 59.3374L40.0838 59.0524C40.0529 58.8983 40.0144 58.6595 39.999 58.5285L39.9759 58.282L39.7756 58.1048C39.66 58.0046 39.5445 57.9045 39.5214 57.8891C39.4828 57.8582 39.4674 57.8043 39.4674 57.7581V57.6656L41.3935 57.681L41.4551 57.8814L41.7864 57.8968C41.9713 57.9045 42.5568 57.9199 43.0807 57.9353L44.0437 57.9584L44.2903 57.5732L44.5445 57.188H44.8681L44.8527 55.5855L44.4289 55.4006C43.0653 54.7997 42.264 54.114 41.9636 53.282C41.9019 53.1125 41.9019 53.0508 41.8865 52.2804C41.8788 51.5177 41.8788 51.4484 41.9328 51.2789C42.0406 50.8937 42.3411 50.5932 42.7263 50.4931C42.8573 50.4545 43.204 50.4545 45.0222 50.4545L47.1639 50.4623L47.4027 50.5778C47.6878 50.7165 47.8188 50.8166 47.9806 51.0324C48.1655 51.2789 48.2194 51.4715 48.2194 51.9414C48.2194 52.6117 48.1732 53.1895 48.1038 53.4206C48.0037 53.7365 47.8496 54.037 47.657 54.3066C47.2718 54.7997 46.5707 55.2928 45.9312 55.5162L45.7463 55.5855L45.7618 57.2034L46.1007 57.2342L46.3319 57.5809L46.5553 57.9276H47.5877C48.1578 57.9276 48.6585 57.9353 48.7048 57.943C48.7818 57.9584 48.7972 57.9507 48.8743 57.8197L48.9667 57.681H49.8527C50.5384 57.681 50.7387 57.6887 50.7387 57.7118C50.7156 57.7041 50.6155 58.0816 50.4999 58.5131Z" fill="white"/>
<path d="M65.8469 49.7149C65.8315 49.3682 65.8006 48.8828 65.7775 48.644C65.4462 45.1463 64.5526 42.2881 62.8576 39.2604C62.7883 39.1448 62.7267 39.0292 62.6881 38.9368C62.6727 38.9137 62.665 38.8906 62.6573 38.8751C62.8962 38.1587 63.8746 35.1617 64.6527 31.7334C65.7082 27.0801 66.3785 21.6409 64.3291 20.0077C64.3291 20.0077 60.7852 19.7457 56.0394 24.399C54.7528 25.6856 53.5741 27.0801 52.5263 28.567L52.195 28.4591C50.2844 27.8351 48.3044 27.4499 46.309 27.3189C45.7081 27.2727 43.4662 27.2727 42.7343 27.3189C40.5232 27.4653 38.8282 27.7966 36.9022 28.4668C36.8251 28.4976 36.7558 28.5208 36.6865 28.5439C35.6002 27.0647 34.3906 25.6779 33.0578 24.4067C28.1194 19.7303 24.4445 20 24.4445 20C22.2719 21.6872 23.0115 27.3728 24.1363 32.1802C24.8759 35.362 25.785 38.1587 26.124 39.1679C26.1009 39.2218 26.0701 39.2835 26.0393 39.3374C24.2442 42.9738 23.2736 46.4791 23.0425 50.2079C25.0533 49.9152 30.5924 49.5839 34.745 54.0523C34.745 54.0523 37.4877 46.8104 44.8837 46.8104C52.2798 46.8104 53.8591 54.0523 53.8591 54.0523C58.759 50.0077 64.0364 50.1386 65.8854 50.3312C65.8777 50.1772 65.8623 49.946 65.8469 49.7149ZM27.5801 36.2634C27.5801 36.2634 24.6987 29.06 25.4383 24.946C25.5616 24.2527 25.7927 23.644 26.1548 23.1818C26.1548 23.1818 29.4214 23.5053 34.6911 29.3605C34.6911 29.3605 33.6895 29.8459 32.349 30.8782C32.349 30.8782 32.3413 30.8859 32.3336 30.8859C30.8775 32.003 29.0131 33.775 27.5801 36.2634ZM39.8067 46.9645C39.7605 47.057 39.5293 47.1571 39.2674 47.1957C39.0054 47.2342 38.2042 47.2111 37.7497 47.1571C36.1164 46.9414 34.3829 46.4407 33.1194 45.8243C32.4107 45.4776 31.9022 45.1309 31.5247 44.7534L31.309 44.53L31.2858 44.2373C31.2473 43.7288 31.255 42.9276 31.3167 42.6425C31.3552 42.4037 31.4399 42.1726 31.5555 41.9645C31.6171 41.8875 31.6171 41.8875 31.8945 41.8875C32.2335 41.8875 32.5185 41.9414 32.9808 42.0878C33.9284 42.3806 35.3382 43.0893 37.0563 44.1217C38.4739 44.9692 39.0054 45.3852 39.4138 45.9553C39.6911 46.3097 39.876 46.8105 39.8067 46.9645ZM57.9578 44.4145C57.9347 44.5377 57.5726 44.9075 57.2105 45.1772C56.1473 45.9553 54.2444 46.6795 52.3106 47.0262C51.2089 47.2265 50.1072 47.2573 49.7759 47.0955C49.5602 46.9876 49.5294 46.9029 49.6064 46.6256C49.7682 46.0477 50.2921 45.416 51.1088 44.8228C51.5248 44.5223 53.212 43.4977 53.9978 43.0662C55.2921 42.3575 56.3399 41.9337 57.0487 41.8336C57.2721 41.8027 57.5418 41.795 57.6265 41.8336C57.7652 41.8875 57.9193 42.2958 57.9809 42.7889C58.0117 43.0508 57.9963 44.2064 57.9578 44.4145ZM56.6789 30.8782L56.6635 30.8705C55.3692 29.8382 54.3984 29.3528 54.3984 29.3528C59.4909 23.4976 62.6419 23.1741 62.6419 23.1741C62.9886 23.644 63.212 24.2449 63.3353 24.9383C64.0518 29.0523 61.2706 36.2634 61.2706 36.2634C60.1072 34.191 58.5433 32.3574 56.6789 30.8782Z" fill="#FFA409"/>
<path d="M63.3433 24.9383C62.7423 24.8612 59.8992 24.8459 56.6789 30.8782L56.6635 30.8705C55.3692 29.8382 54.3984 29.3528 54.3984 29.3528C59.4909 23.4976 62.6419 23.1741 62.6419 23.1741C62.9963 23.644 63.22 24.2449 63.3433 24.9383Z" fill="#FF9300"/>
<path d="M61.2783 36.2634C60.1073 34.1833 58.551 32.3574 56.6789 30.8782C59.8992 24.8459 62.7346 24.8612 63.3433 24.9383C64.0598 29.06 61.2783 36.2634 61.2783 36.2634Z" fill="#FF8300"/>
<path d="M63.4584 24.9614C63.4199 24.9537 63.3818 24.946 63.3433 24.9383L63.4584 24.9614Z" fill="#FF8300"/>
<path d="M34.6912 29.3528C34.6912 29.3528 33.6897 29.8382 32.3491 30.8705C32.3491 30.8705 32.3414 30.8782 32.3337 30.8782C28.9978 24.8382 26.0625 24.8613 25.4308 24.9383C25.554 24.245 25.7852 23.6363 26.1473 23.1741C26.155 23.1741 29.4215 23.4977 34.6912 29.3528Z" fill="#FF9300"/>
<path d="M32.3416 30.8782C30.8778 32.003 29.0131 33.7673 27.5801 36.2634C27.5801 36.2634 24.699 29.0601 25.4387 24.9383C26.0627 24.8613 29.0057 24.8459 32.3416 30.8782Z" fill="#FF8300"/>
<path d="M25.4387 24.9383C25.4001 24.946 25.3539 24.9537 25.3154 24.9614L25.4387 24.9383Z" fill="#FF8300"/>
<path d="M53.4814 40.2619C53.4814 40.2619 51.0161 40.416 51.3242 38.4899C51.6324 36.5639 53.5585 36.3328 54.0978 36.4098C54.6371 36.4869 56.7942 37.2573 56.409 38.8752C56.0238 40.493 55.4845 40.1849 55.1763 40.2619C54.8682 40.3389 53.4814 40.2619 53.4814 40.2619Z" fill="white"/>
<path d="M35.2995 40.2619C35.2995 40.2619 32.8342 40.416 33.1423 38.4899C33.4505 36.5639 35.3765 36.3328 35.9158 36.4098C36.4551 36.4869 38.6123 37.2573 38.2271 38.8752C37.8419 40.493 37.3026 40.1849 36.9944 40.2619C36.6863 40.3389 35.2995 40.2619 35.2995 40.2619Z" fill="white"/>
</svg>
