<svg width="368" height="304" viewBox="0 0 368 304" fill="none" xmlns="http://www.w3.org/2000/svg">
<g filter="url(#filter0_ddd_1157_19280)">
<rect x="80" y="47" width="208" height="144" rx="24" fill="white"/>
<rect x="81" y="48" width="206" height="142" rx="23" stroke="#EBEFF6" stroke-width="2"/>
<path d="M201.13 105.701L195.581 111.651C195.461 111.78 195.316 111.883 195.154 111.954C194.993 112.024 194.818 112.061 194.642 112.061H168.339C168.214 112.061 168.091 112.024 167.986 111.955C167.881 111.887 167.798 111.789 167.748 111.674C167.698 111.559 167.682 111.432 167.703 111.308C167.724 111.184 167.781 111.069 167.866 110.977L173.409 105.028C173.529 104.899 173.674 104.796 173.836 104.725C173.997 104.654 174.172 104.618 174.348 104.618H200.651C200.778 104.615 200.902 104.65 201.009 104.718C201.116 104.786 201.2 104.884 201.251 105C201.303 105.116 201.318 105.244 201.297 105.369C201.275 105.494 201.217 105.609 201.13 105.701ZM195.581 93.7175C195.461 93.5889 195.316 93.4862 195.154 93.4156C194.993 93.3451 194.818 93.3083 194.642 93.3074H168.339C168.214 93.3074 168.091 93.3441 167.986 93.4128C167.881 93.4816 167.798 93.5794 167.748 93.6944C167.698 93.8094 167.682 93.9365 167.703 94.0602C167.724 94.1838 167.781 94.2988 167.866 94.3908L173.409 100.343C173.529 100.472 173.675 100.575 173.836 100.645C173.998 100.716 174.172 100.753 174.348 100.754H200.651C200.776 100.753 200.898 100.716 201.003 100.647C201.108 100.578 201.19 100.48 201.239 100.365C201.289 100.25 201.305 100.123 201.283 100C201.262 99.8766 201.206 99.762 201.121 99.6702L195.581 93.7175ZM168.339 89.4433H194.642C194.818 89.4431 194.993 89.4066 195.154 89.336C195.316 89.2654 195.461 89.1623 195.581 89.0331L201.13 83.0836C201.217 82.9917 201.275 82.8761 201.297 82.7513C201.318 82.6265 201.303 82.4981 201.251 82.3823C201.2 82.2665 201.116 82.1684 201.009 82.1004C200.902 82.0324 200.778 81.9975 200.651 82.0001H174.348C174.172 82.0003 173.997 82.0368 173.836 82.1074C173.674 82.178 173.529 82.2811 173.409 82.4103L167.866 88.3598C167.781 88.4519 167.724 88.5668 167.703 88.6905C167.682 88.8142 167.698 88.9413 167.748 89.0562C167.798 89.1712 167.881 89.2691 167.986 89.3378C168.091 89.4066 168.214 89.4432 168.339 89.4433Z" fill="url(#paint0_linear_1157_19280)"/>
<path fill-rule="evenodd" clip-rule="evenodd" d="M202.505 132.061H188.727C188.12 132.058 187.518 132.174 186.956 132.403C186.393 132.633 185.881 132.971 185.45 133.398C185.018 133.825 184.675 134.333 184.439 134.893C184.204 135.453 184.08 136.053 184.077 136.661V155.233H188.774V147.62H202.49V155.233H207.186V136.661C207.183 136.051 207.059 135.447 206.822 134.885C206.584 134.324 206.238 133.814 205.803 133.387C205.368 132.959 204.853 132.622 204.287 132.394C203.72 132.167 203.115 132.053 202.505 132.061ZM202.471 142.986H188.756V136.695H202.471V142.986Z" fill="#000008"/>
<path fill-rule="evenodd" clip-rule="evenodd" d="M138.905 132.061H153.03C153.638 132.058 154.24 132.174 154.802 132.403C155.364 132.633 155.876 132.971 156.308 133.398C156.74 133.825 157.083 134.333 157.319 134.893C157.554 135.453 157.677 136.053 157.68 136.661V150.633C157.677 151.24 157.554 151.841 157.319 152.401C157.083 152.961 156.74 153.469 156.308 153.896C155.876 154.323 155.364 154.661 154.802 154.89C154.24 155.12 153.638 155.236 153.03 155.233H138.905C138.297 155.238 137.693 155.122 137.129 154.894C136.566 154.665 136.052 154.328 135.619 153.9C135.186 153.473 134.841 152.964 134.605 152.404C134.369 151.843 134.246 151.241 134.242 150.633V136.661C134.246 136.052 134.369 135.451 134.605 134.89C134.841 134.329 135.186 133.821 135.619 133.393C136.052 132.966 136.566 132.628 137.129 132.4C137.693 132.171 138.297 132.056 138.905 132.061ZM138.939 150.598H152.996L152.99 136.695H138.939V150.598Z" fill="#000008"/>
<path d="M111.697 141.329H125.769C126.377 141.326 126.98 141.443 127.542 141.673C128.105 141.902 128.617 142.241 129.049 142.669C129.481 143.096 129.824 143.605 130.059 144.166C130.294 144.726 130.417 145.328 130.419 145.936V150.633C130.416 151.24 130.293 151.841 130.057 152.401C129.822 152.961 129.478 153.469 129.047 153.896C128.615 154.323 128.103 154.661 127.541 154.89C126.978 155.119 126.377 155.236 125.769 155.233H107.335V150.598H125.741V145.964H111.65C111.042 145.967 110.439 145.851 109.877 145.621C109.314 145.391 108.802 145.053 108.37 144.625C107.938 144.197 107.595 143.688 107.36 143.128C107.125 142.567 107.003 141.966 107 141.358V136.661C107.003 136.053 107.126 135.453 107.362 134.893C107.597 134.333 107.941 133.825 108.372 133.398C108.804 132.971 109.316 132.633 109.878 132.403C110.441 132.174 111.043 132.057 111.65 132.061H129.426V136.695H111.697V141.329Z" fill="#000008"/>
<path fill-rule="evenodd" clip-rule="evenodd" d="M243.572 132.061H257.35C257.957 132.057 258.559 132.174 259.122 132.403C259.684 132.633 260.196 132.971 260.628 133.398C261.059 133.825 261.403 134.333 261.638 134.893C261.874 135.453 261.997 136.053 262 136.661V155.233H257.303V147.62H243.619V155.233H238.922V136.661C238.925 136.053 239.048 135.453 239.284 134.893C239.519 134.333 239.863 133.825 240.295 133.398C240.726 132.971 241.238 132.633 241.8 132.403C242.363 132.174 242.965 132.057 243.572 132.061ZM243.588 142.986H257.303V136.695H243.588V142.986Z" fill="#000008"/>
<path d="M230.061 150.598H228.182L221.465 134.002C221.235 133.43 220.839 132.939 220.328 132.593C219.817 132.247 219.214 132.062 218.597 132.061H214.429C214.024 132.059 213.623 132.136 213.248 132.29C212.873 132.443 212.532 132.668 212.244 132.953C211.956 133.238 211.727 133.577 211.57 133.95C211.413 134.324 211.331 134.724 211.329 135.129V155.233H216.026V136.695H217.905L224.619 153.291C224.852 153.863 225.252 154.351 225.765 154.695C226.278 155.038 226.882 155.221 227.499 155.22H231.667C232.072 155.222 232.474 155.144 232.849 154.991C233.224 154.838 233.565 154.613 233.853 154.328C234.141 154.043 234.369 153.704 234.526 153.33C234.683 152.957 234.765 152.556 234.767 152.151V132.061H230.061V150.598Z" fill="#000008"/>
<path d="M161.83 132.061H166.527V150.598H180.586V155.233H166.495C165.886 155.238 165.283 155.123 164.719 154.895C164.155 154.666 163.641 154.329 163.207 153.901C162.774 153.474 162.429 152.965 162.193 152.404C161.956 151.843 161.833 151.241 161.83 150.633V132.061Z" fill="#000008"/>
</g>
<defs>
<filter id="filter0_ddd_1157_19280" x="0" y="0" width="368" height="304" filterUnits="userSpaceOnUse" color-interpolation-filters="sRGB">
<feFlood flood-opacity="0" result="BackgroundImageFix"/>
<feColorMatrix in="SourceAlpha" type="matrix" values="0 0 0 0 0 0 0 0 0 0 0 0 0 0 0 0 0 0 127 0" result="hardAlpha"/>
<feOffset dy="-1.4146"/>
<feGaussianBlur stdDeviation="12.5295"/>
<feColorMatrix type="matrix" values="0 0 0 0 0.717647 0 0 0 0 0.717647 0 0 0 0 0.717647 0 0 0 0.0282725 0"/>
<feBlend mode="normal" in2="BackgroundImageFix" result="effect1_dropShadow_1157_19280"/>
<feColorMatrix in="SourceAlpha" type="matrix" values="0 0 0 0 0 0 0 0 0 0 0 0 0 0 0 0 0 0 127 0" result="hardAlpha"/>
<feOffset dy="2.02905"/>
<feGaussianBlur stdDeviation="18.7294"/>
<feColorMatrix type="matrix" values="0 0 0 0 0.717647 0 0 0 0 0.717647 0 0 0 0 0.717647 0 0 0 0.0417275 0"/>
<feBlend mode="normal" in2="effect1_dropShadow_1157_19280" result="effect2_dropShadow_1157_19280"/>
<feColorMatrix in="SourceAlpha" type="matrix" values="0 0 0 0 0 0 0 0 0 0 0 0 0 0 0 0 0 0 127 0" result="hardAlpha"/>
<feOffset dy="33"/>
<feGaussianBlur stdDeviation="40"/>
<feColorMatrix type="matrix" values="0 0 0 0 0.717647 0 0 0 0 0.717647 0 0 0 0 0.717647 0 0 0 0.07 0"/>
<feBlend mode="normal" in2="effect2_dropShadow_1157_19280" result="effect3_dropShadow_1157_19280"/>
<feBlend mode="normal" in="SourceGraphic" in2="effect3_dropShadow_1157_19280" result="shape"/>
</filter>
<linearGradient id="paint0_linear_1157_19280" x1="170.532" y1="112.777" x2="198.114" y2="81.6828" gradientUnits="userSpaceOnUse">
<stop offset="0.08" stop-color="#9945FF"/>
<stop offset="0.3" stop-color="#8752F3"/>
<stop offset="0.5" stop-color="#5497D5"/>
<stop offset="0.6" stop-color="#43B4CA"/>
<stop offset="0.72" stop-color="#28E0B9"/>
<stop offset="0.97" stop-color="#19FB9B"/>
</linearGradient>
</defs>
</svg>
