<svg width="90" height="90" viewBox="0 0 90 90" fill="none" xmlns="http://www.w3.org/2000/svg">
<rect x="5" y="5" width="80" height="80" rx="16" fill="#0088CC"/>
<path fill-rule="evenodd" clip-rule="evenodd" d="M32.3467 28.751H58.6473C59.5269 28.751 60.3967 28.751 61.5695 29.3374C62.7424 29.9238 63.319 30.8034 63.9054 31.3801C63.9054 31.3801 63.9054 31.3801 63.9054 31.6733C64.4918 32.5529 64.785 33.4228 64.785 34.5956C64.785 35.4753 64.4918 36.6383 63.9054 37.518L47.2513 65.8713C46.9581 66.4578 46.0785 66.751 45.5019 66.751C44.9155 66.751 44.0456 66.4578 43.7524 65.8713L27.3818 37.518C27.0886 36.9315 26.5022 36.0617 26.209 34.5956C26.209 33.4228 26.5022 32.2597 26.7954 31.3801C27.3818 30.5005 28.2516 29.6306 29.1313 29.0442C30.5973 28.751 31.7603 28.751 32.3467 28.751ZM43.4494 32.8461H32.3467C31.7603 32.8461 31.4671 32.8461 31.1739 32.8461C30.8807 32.8461 30.5875 33.1394 30.5875 33.4326C30.2943 33.7258 30.2943 34.019 30.2943 34.3122C30.2943 34.6054 30.2943 34.6054 30.8807 35.485L43.4494 57.4074V32.8461ZM47.5445 32.8461V57.3976L60.4065 35.4753C60.4065 35.182 60.6997 34.8888 60.6997 34.3024C60.6997 34.0092 60.6997 33.716 60.4065 33.4228C60.1133 33.1296 60.1133 33.1296 60.1133 33.1296C60.1133 33.1296 60.1133 33.1296 59.8201 33.1296C59.5269 33.1296 59.2337 32.8364 58.6473 32.8364H47.5445V32.8461Z" fill="white"/>
</svg>
