<svg width="368" height="304" viewBox="0 0 368 304" fill="none" xmlns="http://www.w3.org/2000/svg">
<g filter="url(#filter0_ddd_1160_3214)">
<rect x="80" y="47" width="208" height="144" rx="24" fill="white"/>
<rect x="81" y="48" width="206" height="142" rx="23" stroke="#EBEFF6" stroke-width="2"/>
<path fill-rule="evenodd" clip-rule="evenodd" d="M206.379 119.597C206.379 116.813 206.937 114.408 208.047 112.368C209.156 110.328 210.644 108.66 212.684 107.55C214.91 106.255 217.322 105.697 220.099 105.697C222.877 105.697 225.289 106.255 227.329 107.364C229.368 108.474 230.85 110.148 231.966 112.188C233.076 114.228 233.634 116.64 233.634 119.417C233.634 122.195 233.076 124.606 231.966 126.646C230.856 128.686 229.368 130.354 227.329 131.47C225.289 132.58 222.877 133.138 220.099 133.138C217.316 133.138 214.91 132.58 212.87 131.47C210.83 130.36 209.349 128.686 208.233 126.646C206.931 124.786 206.379 122.188 206.379 119.597ZM213.794 119.597C213.794 121.265 213.98 122.746 214.538 123.862C214.91 124.972 215.648 125.902 216.578 126.646C217.502 127.204 218.618 127.576 220.099 127.576C222.139 127.576 223.807 126.832 224.737 125.536C225.847 124.055 226.219 122.201 226.219 119.603C226.219 117.935 226.033 116.454 225.475 115.338C225.103 114.228 224.359 113.298 223.435 112.554C222.511 111.996 221.395 111.63 219.913 111.63C217.874 111.63 216.206 112.374 215.276 113.67C214.352 114.959 213.794 116.999 213.794 119.597Z" fill="#000008"/>
<path d="M190.618 132.945V111.804H182.459V106.056H205.821V111.804H197.662V132.945H190.618Z" fill="#000008"/>
<path d="M237.893 106.056V132.945H244.385V117.453L256.81 132.945H261.999V106.056H255.508V121.541L243.089 106.056H237.893Z" fill="#000008"/>
<path d="M136.666 148.334C152.984 148.334 166.333 134.985 166.333 118.667C166.327 102.349 152.978 89 136.666 89C120.348 89 106.999 102.349 106.999 118.667C106.999 134.985 120.348 148.334 136.666 148.334Z" fill="#0088CC"/>
<path fill-rule="evenodd" clip-rule="evenodd" d="M128.321 108.654H145.005C145.563 108.654 146.115 108.654 146.859 109.026C147.603 109.398 147.969 109.956 148.341 110.322C148.341 110.322 148.341 110.322 148.341 110.508C148.713 111.066 148.899 111.618 148.899 112.362C148.899 112.92 148.713 113.657 148.341 114.215L137.776 132.201C137.59 132.573 137.032 132.759 136.666 132.759C136.294 132.759 135.742 132.573 135.556 132.201L125.171 114.215C124.985 113.843 124.613 113.292 124.427 112.362C124.427 111.618 124.613 110.88 124.799 110.322C125.171 109.764 125.723 109.212 126.281 108.84C127.211 108.654 127.949 108.654 128.321 108.654ZM135.364 111.252H128.321C127.949 111.252 127.763 111.252 127.577 111.252C127.391 111.252 127.205 111.438 127.205 111.624C127.019 111.81 127.019 111.996 127.019 112.182C127.019 112.368 127.019 112.368 127.391 112.926L135.364 126.832V111.252ZM137.962 126.826L146.121 112.92C146.121 112.734 146.307 112.548 146.307 112.176C146.307 111.99 146.307 111.804 146.121 111.618C145.935 111.432 145.935 111.432 145.935 111.432C145.935 111.432 145.935 111.432 145.749 111.432C145.563 111.432 145.377 111.246 145.005 111.246H137.962V126.826Z" fill="white"/>
</g>
<defs>
<filter id="filter0_ddd_1160_3214" x="0" y="0" width="368" height="304" filterUnits="userSpaceOnUse" color-interpolation-filters="sRGB">
<feFlood flood-opacity="0" result="BackgroundImageFix"/>
<feColorMatrix in="SourceAlpha" type="matrix" values="0 0 0 0 0 0 0 0 0 0 0 0 0 0 0 0 0 0 127 0" result="hardAlpha"/>
<feOffset dy="-1.4146"/>
<feGaussianBlur stdDeviation="12.5295"/>
<feColorMatrix type="matrix" values="0 0 0 0 0.717647 0 0 0 0 0.717647 0 0 0 0 0.717647 0 0 0 0.0282725 0"/>
<feBlend mode="normal" in2="BackgroundImageFix" result="effect1_dropShadow_1160_3214"/>
<feColorMatrix in="SourceAlpha" type="matrix" values="0 0 0 0 0 0 0 0 0 0 0 0 0 0 0 0 0 0 127 0" result="hardAlpha"/>
<feOffset dy="2.02905"/>
<feGaussianBlur stdDeviation="18.7294"/>
<feColorMatrix type="matrix" values="0 0 0 0 0.717647 0 0 0 0 0.717647 0 0 0 0 0.717647 0 0 0 0.0417275 0"/>
<feBlend mode="normal" in2="effect1_dropShadow_1160_3214" result="effect2_dropShadow_1160_3214"/>
<feColorMatrix in="SourceAlpha" type="matrix" values="0 0 0 0 0 0 0 0 0 0 0 0 0 0 0 0 0 0 127 0" result="hardAlpha"/>
<feOffset dy="33"/>
<feGaussianBlur stdDeviation="40"/>
<feColorMatrix type="matrix" values="0 0 0 0 0.717647 0 0 0 0 0.717647 0 0 0 0 0.717647 0 0 0 0.07 0"/>
<feBlend mode="normal" in2="effect2_dropShadow_1160_3214" result="effect3_dropShadow_1160_3214"/>
<feBlend mode="normal" in="SourceGraphic" in2="effect3_dropShadow_1160_3214" result="shape"/>
</filter>
</defs>
</svg>
