<svg width="90" height="90" viewBox="0 0 90 90" fill="none" xmlns="http://www.w3.org/2000/svg">
<rect x="5" y="5" width="80" height="80" rx="16" fill="#FF060A"/>
<path d="M65.1008 38.2554C63.0384 36.3511 60.1853 33.443 57.8616 31.3805L57.7241 31.2843C57.4953 31.1005 57.2374 30.9565 56.961 30.858C51.358 29.813 25.2815 24.9387 24.7728 25.0006C24.6302 25.0205 24.494 25.0722 24.3741 25.1518L24.2434 25.255C24.0826 25.4183 23.9604 25.6156 23.8859 25.8324L23.8516 25.9218V26.4099V26.4856C26.7871 34.6598 38.3782 61.4376 40.6606 67.7213C40.7981 68.1475 41.0594 68.9587 41.5475 69H41.6575C41.9187 69 43.0325 67.5288 43.0325 67.5288C43.0325 67.5288 62.9421 43.3841 64.9565 40.8129C65.2172 40.4962 65.4474 40.1555 65.6439 39.7954C65.6941 39.5136 65.6705 39.2237 65.5753 38.9538C65.4801 38.684 65.3166 38.4433 65.1008 38.2554ZM48.1405 41.0672L56.6379 34.0205L61.6221 38.6129L48.1405 41.0672ZM44.8406 40.6066L30.2108 28.6168L53.881 32.9824L44.8406 40.6066ZM46.1605 43.7485L61.134 41.3354L44.0156 61.9601L46.1605 43.7485ZM28.224 29.813L43.6168 42.8753L41.3894 61.9738L28.224 29.813Z" fill="white"/>
</svg>
