<svg width="368" height="304" viewBox="0 0 368 304" fill="none" xmlns="http://www.w3.org/2000/svg">
<g filter="url(#filter0_ddd_1157_18935)">
<rect x="80" y="47" width="208" height="144" rx="24" fill="white"/>
<rect x="81" y="48" width="206" height="142" rx="23" stroke="#EBEFF6" stroke-width="2"/>
<path d="M259.381 107.227V126.105L240.899 105.565V131.313H243.506V112.429L262 132.976V107.227H259.381Z" fill="#262729"/>
<path d="M159.903 107.227H181.01V109.816H159.903V107.227Z" fill="#262729"/>
<path d="M166.82 114.389H169.409V131.296H166.82V114.389Z" fill="#262729"/>
<path d="M174.087 114.389H171.497V131.296H174.087V114.389Z" fill="#262729"/>
<path d="M248.236 131.313H245.623V118.226L248.236 121.131V131.313Z" fill="#262729"/>
<path d="M223.98 117.526C223.024 117.526 222.248 118.302 222.248 119.258C222.248 120.215 223.024 120.991 223.98 120.991C224.937 120.991 225.713 120.215 225.713 119.258C225.713 118.302 224.937 117.526 223.98 117.526Z" fill="#262729"/>
<path fill-rule="evenodd" clip-rule="evenodd" d="M211.937 119.258C211.937 112.616 217.338 107.215 223.98 107.215C230.623 107.215 236.024 112.622 236.024 119.258C236.024 125.901 230.623 131.302 223.98 131.302C217.338 131.302 211.937 125.901 211.937 119.258ZM214.532 119.258C214.532 124.472 218.772 128.706 223.98 128.706C229.189 128.706 233.429 124.467 233.429 119.258C233.429 114.045 229.189 109.81 223.98 109.81C218.767 109.81 214.532 114.045 214.532 119.258Z" fill="#262729"/>
<path d="M200.075 107.233C204.116 107.233 207.406 110.545 207.406 114.616C207.406 117.777 205.329 120.647 202.361 121.632L207.499 131.313H204.507L199.585 122H193.56V131.319H190.988V119.387L200.127 119.393C202.699 119.363 204.781 117.235 204.781 114.616C204.781 111.986 202.67 109.845 200.075 109.845H188.871V131.319H186.299V107.233H200.075Z" fill="#262729"/>
<path d="M142.098 102.456L107 96L125.47 142.47L151.202 111.117L142.098 102.456ZM141.538 105.302L146.909 110.405L132.224 113.065L141.538 105.302ZM129.034 112.534L113.555 99.6976L138.849 104.352L129.034 112.534ZM127.926 114.809L125.406 135.67L111.8 101.424L127.926 114.809ZM130.258 115.911L146.518 112.966L127.873 135.688L130.258 115.911Z" fill="#FF060A"/>
</g>
<defs>
<filter id="filter0_ddd_1157_18935" x="0" y="0" width="368" height="304" filterUnits="userSpaceOnUse" color-interpolation-filters="sRGB">
<feFlood flood-opacity="0" result="BackgroundImageFix"/>
<feColorMatrix in="SourceAlpha" type="matrix" values="0 0 0 0 0 0 0 0 0 0 0 0 0 0 0 0 0 0 127 0" result="hardAlpha"/>
<feOffset dy="-1.4146"/>
<feGaussianBlur stdDeviation="12.5295"/>
<feColorMatrix type="matrix" values="0 0 0 0 0.717647 0 0 0 0 0.717647 0 0 0 0 0.717647 0 0 0 0.0282725 0"/>
<feBlend mode="normal" in2="BackgroundImageFix" result="effect1_dropShadow_1157_18935"/>
<feColorMatrix in="SourceAlpha" type="matrix" values="0 0 0 0 0 0 0 0 0 0 0 0 0 0 0 0 0 0 127 0" result="hardAlpha"/>
<feOffset dy="2.02905"/>
<feGaussianBlur stdDeviation="18.7294"/>
<feColorMatrix type="matrix" values="0 0 0 0 0.717647 0 0 0 0 0.717647 0 0 0 0 0.717647 0 0 0 0.0417275 0"/>
<feBlend mode="normal" in2="effect1_dropShadow_1157_18935" result="effect2_dropShadow_1157_18935"/>
<feColorMatrix in="SourceAlpha" type="matrix" values="0 0 0 0 0 0 0 0 0 0 0 0 0 0 0 0 0 0 127 0" result="hardAlpha"/>
<feOffset dy="33"/>
<feGaussianBlur stdDeviation="40"/>
<feColorMatrix type="matrix" values="0 0 0 0 0.717647 0 0 0 0 0.717647 0 0 0 0 0.717647 0 0 0 0.07 0"/>
<feBlend mode="normal" in2="effect2_dropShadow_1157_18935" result="effect3_dropShadow_1157_18935"/>
<feBlend mode="normal" in="SourceGraphic" in2="effect3_dropShadow_1157_18935" result="shape"/>
</filter>
</defs>
</svg>
