<svg width="48" height="48" viewBox="0 0 48 48" fill="none" xmlns="http://www.w3.org/2000/svg">
<g clip-path="url(#clip0_1_894)">
<path d="M24 48C37.2552 48 48 37.2552 48 24C48 10.7448 37.2552 0 24 0C10.7448 0 0 10.7448 0 24C0 37.2552 10.7448 48 24 48Z" fill="#20252F"/>
<path d="M39.228 14.7744H34.1376L31.7904 22.44H36.8112L39.228 14.7744Z" fill="white"/>
<path d="M30.0912 27.9912L27.5832 22.0632C27.3024 21.3312 26.808 20.7024 26.1648 20.256C25.5216 19.8096 24.756 19.572 23.9712 19.572C23.196 19.572 22.4376 19.8024 21.7968 20.2392C21.156 20.6736 20.6592 21.2928 20.3736 22.0128L17.7648 27.9792L13.7832 14.7816H8.77441L14.724 34.1424C14.8344 34.4976 15.0552 34.8072 15.3528 35.0256C15.6504 35.2464 16.0128 35.364 16.3824 35.364H19.26C19.608 35.3664 19.9512 35.2656 20.2416 35.0712C20.532 34.8768 20.7576 34.6008 20.8872 34.2792L23.9712 26.688L27.1056 34.3032C27.2352 34.6248 27.4584 34.8984 27.7464 35.0904C28.0344 35.2848 28.3704 35.388 28.7184 35.388H31.5504C31.92 35.388 32.28 35.2704 32.5776 35.0496C32.8752 34.8312 33.096 34.5216 33.2064 34.1688L36.0312 24.996H31.032L30.0912 27.9912Z" fill="white"/>
</g>
<defs>
<clipPath id="clip0_1_894">
<rect width="48" height="48" fill="white"/>
</clipPath>
</defs>
</svg>
